<mxfile host="Electron" modified="2021-01-20T21:07:57.283Z" agent="5.0 (X11; Linux x86_64) AppleWebKit/537.36 (KHTML, like Gecko) draw.io/14.1.8 Chrome/87.0.4280.141 Electron/11.2.0 Safari/537.36" etag="T5AooKQljwVZCqcCj73F" compressed="false" version="14.1.8" type="device">
  <diagram id="9XrS1GHqLKZMvzqyOHTl" name="Page-1">
    <mxGraphModel dx="1102" dy="1000" grid="0" gridSize="3.937" guides="1" tooltips="1" connect="1" arrows="1" fold="1" page="1" pageScale="1" pageWidth="10000" pageHeight="10000" math="0" shadow="0">
      <root>
        <mxCell id="0" />
        <mxCell id="1" parent="0" />
        <mxCell id="HHnZ4qpc_pkSZuf3FhQu-21" value="Vertex" style="swimlane;fontStyle=1;childLayout=stackLayout;horizontal=1;startSize=26;fillColor=#f8cecc;horizontalStack=0;resizeParent=1;resizeParentMax=0;resizeLast=0;collapsible=1;marginBottom=0;fontSize=15;strokeWidth=2;strokeColor=#b85450;fontFamily=Jetbrains Mono;" parent="1" vertex="1">
          <mxGeometry x="5380" y="3650" width="290" height="368" as="geometry" />
        </mxCell>
        <mxCell id="HHnZ4qpc_pkSZuf3FhQu-22" value="ID string" style="text;strokeColor=none;fillColor=none;align=left;verticalAlign=top;spacingLeft=4;spacingRight=4;overflow=hidden;rotatable=0;points=[[0,0.5],[1,0.5]];portConstraint=eastwest;fontSize=14;fontStyle=0;fontFamily=Jetbrains Mono;" parent="HHnZ4qpc_pkSZuf3FhQu-21" vertex="1">
          <mxGeometry y="26" width="290" height="26" as="geometry" />
        </mxCell>
        <mxCell id="HHnZ4qpc_pkSZuf3FhQu-26" value="" style="line;strokeWidth=1;fillColor=none;align=left;verticalAlign=middle;spacingTop=-1;spacingLeft=3;spacingRight=3;rotatable=0;labelPosition=right;points=[];portConstraint=eastwest;fontSize=15;fontColor=#000000;fontFamily=Jetbrains Mono;" parent="HHnZ4qpc_pkSZuf3FhQu-21" vertex="1">
          <mxGeometry y="52" width="290" height="8" as="geometry" />
        </mxCell>
        <mxCell id="HHnZ4qpc_pkSZuf3FhQu-23" value="Iface interface{}" style="text;strokeColor=none;fillColor=none;align=left;verticalAlign=top;spacingLeft=4;spacingRight=4;overflow=hidden;rotatable=0;points=[[0,0.5],[1,0.5]];portConstraint=eastwest;fontSize=14;fontStyle=0;fontFamily=Jetbrains Mono;" parent="HHnZ4qpc_pkSZuf3FhQu-21" vertex="1">
          <mxGeometry y="60" width="290" height="26" as="geometry" />
        </mxCell>
        <mxCell id="HHnZ4qpc_pkSZuf3FhQu-25" value="" style="line;strokeWidth=1;fillColor=none;align=left;verticalAlign=middle;spacingTop=-1;spacingLeft=3;spacingRight=3;rotatable=0;labelPosition=right;points=[];portConstraint=eastwest;fontSize=15;fontColor=#000000;fontFamily=Jetbrains Mono;" parent="HHnZ4qpc_pkSZuf3FhQu-21" vertex="1">
          <mxGeometry y="86" width="290" height="8" as="geometry" />
        </mxCell>
        <mxCell id="HHnZ4qpc_pkSZuf3FhQu-28" value="Meta Meta" style="text;strokeColor=none;fillColor=none;align=left;verticalAlign=top;spacingLeft=4;spacingRight=4;overflow=hidden;rotatable=0;points=[[0,0.5],[1,0.5]];portConstraint=eastwest;fontSize=14;fontStyle=0;fontFamily=Jetbrains Mono;" parent="HHnZ4qpc_pkSZuf3FhQu-21" vertex="1">
          <mxGeometry y="94" width="290" height="26" as="geometry" />
        </mxCell>
        <mxCell id="HHnZ4qpc_pkSZuf3FhQu-36" value="" style="line;strokeWidth=1;fillColor=none;align=left;verticalAlign=middle;spacingTop=-1;spacingLeft=3;spacingRight=3;rotatable=0;labelPosition=right;points=[];portConstraint=eastwest;fontSize=15;fontColor=#000000;fontFamily=Jetbrains Mono;" parent="HHnZ4qpc_pkSZuf3FhQu-21" vertex="1">
          <mxGeometry y="120" width="290" height="8" as="geometry" />
        </mxCell>
        <mxCell id="HHnZ4qpc_pkSZuf3FhQu-31" value="Dependencies []*Vertex" style="text;strokeColor=none;fillColor=none;align=left;verticalAlign=top;spacingLeft=4;spacingRight=4;overflow=hidden;rotatable=0;points=[[0,0.5],[1,0.5]];portConstraint=eastwest;fontSize=14;fontStyle=0;fontFamily=Jetbrains Mono;" parent="HHnZ4qpc_pkSZuf3FhQu-21" vertex="1">
          <mxGeometry y="128" width="290" height="30" as="geometry" />
        </mxCell>
        <mxCell id="HHnZ4qpc_pkSZuf3FhQu-37" value="" style="line;strokeWidth=1;fillColor=none;align=left;verticalAlign=middle;spacingTop=-1;spacingLeft=3;spacingRight=3;rotatable=0;labelPosition=right;points=[];portConstraint=eastwest;fontSize=15;fontColor=#000000;fontFamily=Jetbrains Mono;" parent="HHnZ4qpc_pkSZuf3FhQu-21" vertex="1">
          <mxGeometry y="158" width="290" height="8" as="geometry" />
        </mxCell>
        <mxCell id="HHnZ4qpc_pkSZuf3FhQu-30" value="Provides map[string]ProvidedEntry" style="text;strokeColor=none;fillColor=none;align=left;verticalAlign=top;spacingLeft=4;spacingRight=4;overflow=hidden;rotatable=0;points=[[0,0.5],[1,0.5]];portConstraint=eastwest;fontSize=14;fontStyle=0;fontFamily=Jetbrains Mono;" parent="HHnZ4qpc_pkSZuf3FhQu-21" vertex="1">
          <mxGeometry y="166" width="290" height="26" as="geometry" />
        </mxCell>
        <mxCell id="HHnZ4qpc_pkSZuf3FhQu-38" value="" style="line;strokeWidth=1;fillColor=none;align=left;verticalAlign=middle;spacingTop=-1;spacingLeft=3;spacingRight=3;rotatable=0;labelPosition=right;points=[];portConstraint=eastwest;fontSize=15;fontColor=#000000;fontFamily=Jetbrains Mono;" parent="HHnZ4qpc_pkSZuf3FhQu-21" vertex="1">
          <mxGeometry y="192" width="290" height="8" as="geometry" />
        </mxCell>
        <mxCell id="HHnZ4qpc_pkSZuf3FhQu-29" value="IsDisabled bool" style="text;strokeColor=none;fillColor=none;align=left;verticalAlign=top;spacingLeft=4;spacingRight=4;overflow=hidden;rotatable=0;points=[[0,0.5],[1,0.5]];portConstraint=eastwest;fontSize=14;fontStyle=0;fontFamily=Jetbrains Mono;" parent="HHnZ4qpc_pkSZuf3FhQu-21" vertex="1">
          <mxGeometry y="200" width="290" height="26" as="geometry" />
        </mxCell>
        <mxCell id="HHnZ4qpc_pkSZuf3FhQu-39" value="" style="line;strokeWidth=1;fillColor=none;align=left;verticalAlign=middle;spacingTop=-1;spacingLeft=3;spacingRight=3;rotatable=0;labelPosition=right;points=[];portConstraint=eastwest;fontSize=15;fontColor=#000000;fontFamily=Jetbrains Mono;" parent="HHnZ4qpc_pkSZuf3FhQu-21" vertex="1">
          <mxGeometry y="226" width="290" height="8" as="geometry" />
        </mxCell>
        <mxCell id="HHnZ4qpc_pkSZuf3FhQu-34" value="numOfDeps int" style="text;strokeColor=none;fillColor=none;align=left;verticalAlign=top;spacingLeft=4;spacingRight=4;overflow=hidden;rotatable=0;points=[[0,0.5],[1,0.5]];portConstraint=eastwest;fontSize=14;fontStyle=0;fontFamily=Jetbrains Mono;" parent="HHnZ4qpc_pkSZuf3FhQu-21" vertex="1">
          <mxGeometry y="234" width="290" height="26" as="geometry" />
        </mxCell>
        <mxCell id="HHnZ4qpc_pkSZuf3FhQu-40" value="" style="line;strokeWidth=1;fillColor=none;align=left;verticalAlign=middle;spacingTop=-1;spacingLeft=3;spacingRight=3;rotatable=0;labelPosition=right;points=[];portConstraint=eastwest;fontSize=15;fontColor=#000000;fontFamily=Jetbrains Mono;" parent="HHnZ4qpc_pkSZuf3FhQu-21" vertex="1">
          <mxGeometry y="260" width="290" height="8" as="geometry" />
        </mxCell>
        <mxCell id="HHnZ4qpc_pkSZuf3FhQu-33" value="visited   bool" style="text;strokeColor=none;fillColor=none;align=left;verticalAlign=top;spacingLeft=4;spacingRight=4;overflow=hidden;rotatable=0;points=[[0,0.5],[1,0.5]];portConstraint=eastwest;fontSize=14;fontStyle=0;fontFamily=Jetbrains Mono;" parent="HHnZ4qpc_pkSZuf3FhQu-21" vertex="1">
          <mxGeometry y="268" width="290" height="26" as="geometry" />
        </mxCell>
        <mxCell id="HHnZ4qpc_pkSZuf3FhQu-41" value="" style="line;strokeWidth=1;fillColor=none;align=left;verticalAlign=middle;spacingTop=-1;spacingLeft=3;spacingRight=3;rotatable=0;labelPosition=right;points=[];portConstraint=eastwest;fontSize=15;fontColor=#000000;fontFamily=Jetbrains Mono;" parent="HHnZ4qpc_pkSZuf3FhQu-21" vertex="1">
          <mxGeometry y="294" width="290" height="8" as="geometry" />
        </mxCell>
        <mxCell id="HHnZ4qpc_pkSZuf3FhQu-32" value="visiting  bool" style="text;strokeColor=none;fillColor=none;align=left;verticalAlign=top;spacingLeft=4;spacingRight=4;overflow=hidden;rotatable=0;points=[[0,0.5],[1,0.5]];portConstraint=eastwest;fontSize=14;fontStyle=0;fontFamily=Jetbrains Mono;" parent="HHnZ4qpc_pkSZuf3FhQu-21" vertex="1">
          <mxGeometry y="302" width="290" height="28" as="geometry" />
        </mxCell>
        <mxCell id="HHnZ4qpc_pkSZuf3FhQu-42" value="" style="line;strokeWidth=1;fillColor=none;align=left;verticalAlign=middle;spacingTop=-1;spacingLeft=3;spacingRight=3;rotatable=0;labelPosition=right;points=[];portConstraint=eastwest;fontSize=15;fontColor=#000000;fontFamily=Jetbrains Mono;" parent="HHnZ4qpc_pkSZuf3FhQu-21" vertex="1">
          <mxGeometry y="330" width="290" height="8" as="geometry" />
        </mxCell>
        <mxCell id="HHnZ4qpc_pkSZuf3FhQu-24" value="state uint32" style="text;strokeColor=none;fillColor=none;align=left;verticalAlign=top;spacingLeft=4;spacingRight=4;overflow=hidden;rotatable=0;points=[[0,0.5],[1,0.5]];portConstraint=eastwest;fontSize=14;fontStyle=0;fontFamily=Jetbrains Mono;" parent="HHnZ4qpc_pkSZuf3FhQu-21" vertex="1">
          <mxGeometry y="338" width="290" height="30" as="geometry" />
        </mxCell>
        <mxCell id="HHnZ4qpc_pkSZuf3FhQu-85" style="edgeStyle=orthogonalEdgeStyle;orthogonalLoop=1;jettySize=auto;html=1;exitX=0.5;exitY=0;exitDx=0;exitDy=0;entryX=0.5;entryY=0;entryDx=0;entryDy=0;fontSize=13;fontColor=#CC6600;fontFamily=Jetbrains Mono;fillColor=#dae8fc;strokeColor=#6c8ebf;" parent="1" source="HHnZ4qpc_pkSZuf3FhQu-43" target="HHnZ4qpc_pkSZuf3FhQu-21" edge="1">
          <mxGeometry relative="1" as="geometry">
            <Array as="points">
              <mxPoint x="5537" y="3380" />
              <mxPoint x="5728" y="3380" />
              <mxPoint x="5728" y="3590" />
              <mxPoint x="5525" y="3590" />
            </Array>
          </mxGeometry>
        </mxCell>
        <mxCell id="HHnZ4qpc_pkSZuf3FhQu-43" value="Graph" style="swimlane;fontStyle=1;childLayout=stackLayout;horizontal=1;startSize=26;fillColor=#dae8fc;horizontalStack=0;resizeParent=1;resizeParentMax=0;resizeLast=0;collapsible=1;marginBottom=0;fontSize=15;strokeWidth=2;strokeColor=#6c8ebf;fontFamily=Jetbrains Mono;" parent="1" vertex="1">
          <mxGeometry x="5380" y="3400" width="312.9" height="130" as="geometry" />
        </mxCell>
        <mxCell id="HHnZ4qpc_pkSZuf3FhQu-44" value="VerticesMap map[string]*Vertex" style="text;strokeColor=none;fillColor=none;align=left;verticalAlign=top;spacingLeft=4;spacingRight=4;overflow=hidden;rotatable=0;points=[[0,0.5],[1,0.5]];portConstraint=eastwest;fontSize=14;fontStyle=0;fontFamily=Jetbrains Mono;" parent="HHnZ4qpc_pkSZuf3FhQu-43" vertex="1">
          <mxGeometry y="26" width="312.9" height="26" as="geometry" />
        </mxCell>
        <mxCell id="HHnZ4qpc_pkSZuf3FhQu-45" value="" style="line;strokeWidth=1;fillColor=none;align=left;verticalAlign=middle;spacingTop=-1;spacingLeft=3;spacingRight=3;rotatable=0;labelPosition=right;points=[];portConstraint=eastwest;fontSize=15;fontColor=#000000;fontFamily=Jetbrains Mono;" parent="HHnZ4qpc_pkSZuf3FhQu-43" vertex="1">
          <mxGeometry y="52" width="312.9" height="8" as="geometry" />
        </mxCell>
        <mxCell id="HHnZ4qpc_pkSZuf3FhQu-46" value="Vertices []*Vertex" style="text;strokeColor=none;fillColor=none;align=left;verticalAlign=top;spacingLeft=4;spacingRight=4;overflow=hidden;rotatable=0;points=[[0,0.5],[1,0.5]];portConstraint=eastwest;fontSize=14;fontStyle=0;fontFamily=Jetbrains Mono;" parent="HHnZ4qpc_pkSZuf3FhQu-43" vertex="1">
          <mxGeometry y="60" width="312.9" height="26" as="geometry" />
        </mxCell>
        <mxCell id="HHnZ4qpc_pkSZuf3FhQu-47" value="" style="line;strokeWidth=1;fillColor=none;align=left;verticalAlign=middle;spacingTop=-1;spacingLeft=3;spacingRight=3;rotatable=0;labelPosition=right;points=[];portConstraint=eastwest;fontSize=15;fontColor=#000000;fontFamily=Jetbrains Mono;" parent="HHnZ4qpc_pkSZuf3FhQu-43" vertex="1">
          <mxGeometry y="86" width="312.9" height="8" as="geometry" />
        </mxCell>
        <mxCell id="HHnZ4qpc_pkSZuf3FhQu-48" value="providers map[string]reflect.Value" style="text;strokeColor=none;fillColor=none;align=left;verticalAlign=top;spacingLeft=4;spacingRight=4;overflow=hidden;rotatable=0;points=[[0,0.5],[1,0.5]];portConstraint=eastwest;fontSize=14;fontStyle=0;fontFamily=Jetbrains Mono;" parent="HHnZ4qpc_pkSZuf3FhQu-43" vertex="1">
          <mxGeometry y="94" width="312.9" height="36" as="geometry" />
        </mxCell>
        <mxCell id="HHnZ4qpc_pkSZuf3FhQu-63" value="Entry" style="swimlane;fontStyle=1;childLayout=stackLayout;horizontal=1;startSize=26;fillColor=#e1d5e7;horizontalStack=0;resizeParent=1;resizeParentMax=0;resizeLast=0;collapsible=1;marginBottom=0;fontSize=15;strokeWidth=2;strokeColor=#9673a6;fontFamily=Jetbrains Mono;" parent="1" vertex="1">
          <mxGeometry x="5390" y="2950" width="290" height="192" as="geometry" />
        </mxCell>
        <mxCell id="HHnZ4qpc_pkSZuf3FhQu-64" value="RefID string" style="text;strokeColor=none;fillColor=none;align=left;verticalAlign=top;spacingLeft=4;spacingRight=4;overflow=hidden;rotatable=0;points=[[0,0.5],[1,0.5]];portConstraint=eastwest;fontSize=14;fontStyle=0;fontFamily=Jetbrains Mono;" parent="HHnZ4qpc_pkSZuf3FhQu-63" vertex="1">
          <mxGeometry y="26" width="290" height="26" as="geometry" />
        </mxCell>
        <mxCell id="HHnZ4qpc_pkSZuf3FhQu-65" value="" style="line;strokeWidth=1;fillColor=none;align=left;verticalAlign=middle;spacingTop=-1;spacingLeft=3;spacingRight=3;rotatable=0;labelPosition=right;points=[];portConstraint=eastwest;fontSize=15;fontColor=#000000;fontFamily=Jetbrains Mono;" parent="HHnZ4qpc_pkSZuf3FhQu-63" vertex="1">
          <mxGeometry y="52" width="290" height="8" as="geometry" />
        </mxCell>
        <mxCell id="HHnZ4qpc_pkSZuf3FhQu-66" value="Name string" style="text;strokeColor=none;fillColor=none;align=left;verticalAlign=top;spacingLeft=4;spacingRight=4;overflow=hidden;rotatable=0;points=[[0,0.5],[1,0.5]];portConstraint=eastwest;fontSize=14;fontStyle=0;fontFamily=Jetbrains Mono;" parent="HHnZ4qpc_pkSZuf3FhQu-63" vertex="1">
          <mxGeometry y="60" width="290" height="26" as="geometry" />
        </mxCell>
        <mxCell id="HHnZ4qpc_pkSZuf3FhQu-67" value="" style="line;strokeWidth=1;fillColor=none;align=left;verticalAlign=middle;spacingTop=-1;spacingLeft=3;spacingRight=3;rotatable=0;labelPosition=right;points=[];portConstraint=eastwest;fontSize=15;fontColor=#000000;fontFamily=Jetbrains Mono;" parent="HHnZ4qpc_pkSZuf3FhQu-63" vertex="1">
          <mxGeometry y="86" width="290" height="8" as="geometry" />
        </mxCell>
        <mxCell id="HHnZ4qpc_pkSZuf3FhQu-68" value="IsReference *bool" style="text;strokeColor=none;fillColor=none;align=left;verticalAlign=top;spacingLeft=4;spacingRight=4;overflow=hidden;rotatable=0;points=[[0,0.5],[1,0.5]];portConstraint=eastwest;fontSize=14;fontStyle=0;fontFamily=Jetbrains Mono;" parent="HHnZ4qpc_pkSZuf3FhQu-63" vertex="1">
          <mxGeometry y="94" width="290" height="26" as="geometry" />
        </mxCell>
        <mxCell id="HHnZ4qpc_pkSZuf3FhQu-69" value="" style="line;strokeWidth=1;fillColor=none;align=left;verticalAlign=middle;spacingTop=-1;spacingLeft=3;spacingRight=3;rotatable=0;labelPosition=right;points=[];portConstraint=eastwest;fontSize=15;fontColor=#000000;fontFamily=Jetbrains Mono;" parent="HHnZ4qpc_pkSZuf3FhQu-63" vertex="1">
          <mxGeometry y="120" width="290" height="8" as="geometry" />
        </mxCell>
        <mxCell id="HHnZ4qpc_pkSZuf3FhQu-70" value="IsDisabled bool" style="text;strokeColor=none;fillColor=none;align=left;verticalAlign=top;spacingLeft=4;spacingRight=4;overflow=hidden;rotatable=0;points=[[0,0.5],[1,0.5]];portConstraint=eastwest;fontSize=14;fontStyle=0;fontFamily=Jetbrains Mono;" parent="HHnZ4qpc_pkSZuf3FhQu-63" vertex="1">
          <mxGeometry y="128" width="290" height="30" as="geometry" />
        </mxCell>
        <mxCell id="HHnZ4qpc_pkSZuf3FhQu-71" value="" style="line;strokeWidth=1;fillColor=none;align=left;verticalAlign=middle;spacingTop=-1;spacingLeft=3;spacingRight=3;rotatable=0;labelPosition=right;points=[];portConstraint=eastwest;fontSize=15;fontColor=#000000;fontFamily=Jetbrains Mono;" parent="HHnZ4qpc_pkSZuf3FhQu-63" vertex="1">
          <mxGeometry y="158" width="290" height="8" as="geometry" />
        </mxCell>
        <mxCell id="HHnZ4qpc_pkSZuf3FhQu-72" value="Kind reflect.Kind" style="text;strokeColor=none;fillColor=none;align=left;verticalAlign=top;spacingLeft=4;spacingRight=4;overflow=hidden;rotatable=0;points=[[0,0.5],[1,0.5]];portConstraint=eastwest;fontSize=14;fontStyle=0;fontFamily=Jetbrains Mono;" parent="HHnZ4qpc_pkSZuf3FhQu-63" vertex="1">
          <mxGeometry y="166" width="290" height="26" as="geometry" />
        </mxCell>
        <mxCell id="HHnZ4qpc_pkSZuf3FhQu-86" value="Meta" style="swimlane;fontStyle=1;childLayout=stackLayout;horizontal=1;startSize=26;fillColor=#d5e8d4;horizontalStack=0;resizeParent=1;resizeParentMax=0;resizeLast=0;collapsible=1;marginBottom=0;fontSize=15;strokeWidth=2;strokeColor=#82b366;fontFamily=Jetbrains Mono;" parent="1" vertex="1">
          <mxGeometry x="5300" y="4140" width="370" height="226" as="geometry" />
        </mxCell>
        <mxCell id="HHnZ4qpc_pkSZuf3FhQu-87" value="Order int" style="text;strokeColor=none;fillColor=none;align=left;verticalAlign=top;spacingLeft=4;spacingRight=4;overflow=hidden;rotatable=0;points=[[0,0.5],[1,0.5]];portConstraint=eastwest;fontSize=14;fontStyle=0;fontFamily=Jetbrains Mono;" parent="HHnZ4qpc_pkSZuf3FhQu-86" vertex="1">
          <mxGeometry y="26" width="370" height="26" as="geometry" />
        </mxCell>
        <mxCell id="HHnZ4qpc_pkSZuf3FhQu-88" value="" style="line;strokeWidth=1;fillColor=none;align=left;verticalAlign=middle;spacingTop=-1;spacingLeft=3;spacingRight=3;rotatable=0;labelPosition=right;points=[];portConstraint=eastwest;fontSize=15;fontColor=#000000;fontStyle=1;fontFamily=Jetbrains Mono;" parent="HHnZ4qpc_pkSZuf3FhQu-86" vertex="1">
          <mxGeometry y="52" width="370" height="8" as="geometry" />
        </mxCell>
        <mxCell id="HHnZ4qpc_pkSZuf3FhQu-89" value="FnsProviderToInvoke ProviderEntries" style="text;strokeColor=none;fillColor=none;align=left;verticalAlign=top;spacingLeft=4;spacingRight=4;overflow=hidden;rotatable=0;points=[[0,0.5],[1,0.5]];portConstraint=eastwest;fontSize=14;fontStyle=0;fontFamily=Jetbrains Mono;" parent="HHnZ4qpc_pkSZuf3FhQu-86" vertex="1">
          <mxGeometry y="60" width="370" height="26" as="geometry" />
        </mxCell>
        <mxCell id="HHnZ4qpc_pkSZuf3FhQu-90" value="" style="line;strokeWidth=1;fillColor=none;align=left;verticalAlign=middle;spacingTop=-1;spacingLeft=3;spacingRight=3;rotatable=0;labelPosition=right;points=[];portConstraint=eastwest;fontSize=15;fontColor=#000000;fontStyle=0;fontFamily=Jetbrains Mono;" parent="HHnZ4qpc_pkSZuf3FhQu-86" vertex="1">
          <mxGeometry y="86" width="370" height="8" as="geometry" />
        </mxCell>
        <mxCell id="HHnZ4qpc_pkSZuf3FhQu-91" value="CollectorEntries CollectorEntries" style="text;strokeColor=none;fillColor=none;align=left;verticalAlign=top;spacingLeft=4;spacingRight=4;overflow=hidden;rotatable=0;points=[[0,0.5],[1,0.5]];portConstraint=eastwest;fontSize=14;fontStyle=0;fontFamily=Jetbrains Mono;" parent="HHnZ4qpc_pkSZuf3FhQu-86" vertex="1">
          <mxGeometry y="94" width="370" height="26" as="geometry" />
        </mxCell>
        <mxCell id="HHnZ4qpc_pkSZuf3FhQu-92" value="" style="line;strokeWidth=1;fillColor=none;align=left;verticalAlign=middle;spacingTop=-1;spacingLeft=3;spacingRight=3;rotatable=0;labelPosition=right;points=[];portConstraint=eastwest;fontSize=15;fontColor=#000000;fontFamily=Jetbrains Mono;" parent="HHnZ4qpc_pkSZuf3FhQu-86" vertex="1">
          <mxGeometry y="120" width="370" height="8" as="geometry" />
        </mxCell>
        <mxCell id="HHnZ4qpc_pkSZuf3FhQu-93" value="InitDepsToInvoke map[string][]Entry" style="text;strokeColor=none;fillColor=none;align=left;verticalAlign=top;spacingLeft=4;spacingRight=4;overflow=hidden;rotatable=0;points=[[0,0.5],[1,0.5]];portConstraint=eastwest;fontSize=14;fontStyle=0;fontFamily=Jetbrains Mono;" parent="HHnZ4qpc_pkSZuf3FhQu-86" vertex="1">
          <mxGeometry y="128" width="370" height="30" as="geometry" />
        </mxCell>
        <mxCell id="HHnZ4qpc_pkSZuf3FhQu-94" value="" style="line;strokeWidth=1;fillColor=none;align=left;verticalAlign=middle;spacingTop=-1;spacingLeft=3;spacingRight=3;rotatable=0;labelPosition=right;points=[];portConstraint=eastwest;fontSize=15;fontColor=#000000;fontFamily=Jetbrains Mono;" parent="HHnZ4qpc_pkSZuf3FhQu-86" vertex="1">
          <mxGeometry y="158" width="370" height="8" as="geometry" />
        </mxCell>
        <mxCell id="HHnZ4qpc_pkSZuf3FhQu-95" value="InitDepsOrd  []string" style="text;strokeColor=none;fillColor=none;align=left;verticalAlign=top;spacingLeft=4;spacingRight=4;overflow=hidden;rotatable=0;points=[[0,0.5],[1,0.5]];portConstraint=eastwest;fontSize=14;fontStyle=0;fontFamily=Jetbrains Mono;" parent="HHnZ4qpc_pkSZuf3FhQu-86" vertex="1">
          <mxGeometry y="166" width="370" height="26" as="geometry" />
        </mxCell>
        <mxCell id="HHnZ4qpc_pkSZuf3FhQu-96" value="" style="line;strokeWidth=1;fillColor=none;align=left;verticalAlign=middle;spacingTop=-1;spacingLeft=3;spacingRight=3;rotatable=0;labelPosition=right;points=[];portConstraint=eastwest;fontSize=15;fontColor=#000000;fontFamily=Jetbrains Mono;" parent="HHnZ4qpc_pkSZuf3FhQu-86" vertex="1">
          <mxGeometry y="192" width="370" height="8" as="geometry" />
        </mxCell>
        <mxCell id="HHnZ4qpc_pkSZuf3FhQu-97" value="CollectsDepsToInvoke map[string][]Entry" style="text;strokeColor=none;fillColor=none;align=left;verticalAlign=top;spacingLeft=4;spacingRight=4;overflow=hidden;rotatable=0;points=[[0,0.5],[1,0.5]];portConstraint=eastwest;fontSize=14;fontStyle=0;fontFamily=Jetbrains Mono;" parent="HHnZ4qpc_pkSZuf3FhQu-86" vertex="1">
          <mxGeometry y="200" width="370" height="26" as="geometry" />
        </mxCell>
        <mxCell id="HHnZ4qpc_pkSZuf3FhQu-106" style="edgeStyle=orthogonalEdgeStyle;orthogonalLoop=1;jettySize=auto;html=1;exitX=1;exitY=0.5;exitDx=0;exitDy=0;entryX=0.5;entryY=0;entryDx=0;entryDy=0;fontSize=13;fontColor=#CC6600;fontFamily=Jetbrains Mono;fillColor=#f8cecc;strokeColor=#b85450;" parent="1" source="HHnZ4qpc_pkSZuf3FhQu-28" target="HHnZ4qpc_pkSZuf3FhQu-86" edge="1">
          <mxGeometry relative="1" as="geometry">
            <Array as="points">
              <mxPoint x="5950" y="3757" />
              <mxPoint x="5950" y="4090" />
              <mxPoint x="5485" y="4090" />
            </Array>
          </mxGeometry>
        </mxCell>
        <mxCell id="AKWeKp6k3Ee_MQOzL1RP-2" style="edgeStyle=orthogonalEdgeStyle;orthogonalLoop=1;jettySize=auto;html=1;exitX=1;exitY=0.5;exitDx=0;exitDy=0;entryX=0.5;entryY=0;entryDx=0;entryDy=0;fontColor=#FF0000;fontFamily=Jetbrains Mono;fillColor=#d5e8d4;strokeColor=#82b366;" parent="1" source="HHnZ4qpc_pkSZuf3FhQu-97" target="HHnZ4qpc_pkSZuf3FhQu-63" edge="1">
          <mxGeometry relative="1" as="geometry">
            <Array as="points">
              <mxPoint x="5740" y="4353" />
              <mxPoint x="5740" y="2890" />
              <mxPoint x="5535" y="2890" />
            </Array>
          </mxGeometry>
        </mxCell>
        <mxCell id="jVUEl1n2tODpElSi2Gqy-6" style="edgeStyle=orthogonalEdgeStyle;orthogonalLoop=1;jettySize=auto;html=1;exitX=0.5;exitY=1;exitDx=0;exitDy=0;entryX=0.5;entryY=0;entryDx=0;entryDy=0;fontFamily=Jetbrains Mono;" parent="1" source="jVUEl1n2tODpElSi2Gqy-1" target="jVUEl1n2tODpElSi2Gqy-4" edge="1">
          <mxGeometry relative="1" as="geometry" />
        </mxCell>
        <mxCell id="jVUEl1n2tODpElSi2Gqy-1" value="&lt;font color=&quot;#000000&quot;&gt;PROGRAM START&lt;/font&gt;" style="whiteSpace=wrap;html=1;fontFamily=Jetbrains Mono;fillColor=#fa6800;strokeColor=#C73500;fontColor=#ffffff;" parent="1" vertex="1">
          <mxGeometry x="3690" y="3410" width="190" height="30" as="geometry" />
        </mxCell>
        <mxCell id="jVUEl1n2tODpElSi2Gqy-21" style="edgeStyle=orthogonalEdgeStyle;orthogonalLoop=1;jettySize=auto;html=1;exitX=0.5;exitY=1;exitDx=0;exitDy=0;entryX=0.5;entryY=0;entryDx=0;entryDy=0;fontFamily=Jetbrains Mono;fontSize=14;fillColor=#fff2cc;strokeColor=#d6b656;" parent="1" source="jVUEl1n2tODpElSi2Gqy-4" target="jVUEl1n2tODpElSi2Gqy-20" edge="1">
          <mxGeometry relative="1" as="geometry" />
        </mxCell>
        <mxCell id="jVUEl1n2tODpElSi2Gqy-129" style="edgeStyle=orthogonalEdgeStyle;rounded=0;orthogonalLoop=1;jettySize=auto;html=1;exitX=1;exitY=0.5;exitDx=0;exitDy=0;strokeWidth=1;fontFamily=Jetbrains Mono;fontSize=12;entryX=0;entryY=0.5;entryDx=0;entryDy=0;entryPerimeter=0;fillColor=#fff2cc;strokeColor=#d6b656;" parent="1" source="jVUEl1n2tODpElSi2Gqy-4" target="jVUEl1n2tODpElSi2Gqy-145" edge="1">
          <mxGeometry relative="1" as="geometry">
            <mxPoint x="5096.089999999999" y="3453.0330000000004" as="targetPoint" />
          </mxGeometry>
        </mxCell>
        <mxCell id="jVUEl1n2tODpElSi2Gqy-4" value="&lt;sub&gt;&lt;font style=&quot;font-size: 16px&quot;&gt;Register (vertex ID)&lt;/font&gt;&lt;/sub&gt;" style="rhombus;whiteSpace=wrap;html=1;aspect=fixed;align=center;verticalAlign=middle;fontFamily=Jetbrains Mono;perimeter=rhombusPerimeter;fillColor=#fff2cc;strokeColor=#d6b656;" parent="1" vertex="1">
          <mxGeometry x="3670" y="3502" width="230" height="230" as="geometry" />
        </mxCell>
        <mxCell id="jVUEl1n2tODpElSi2Gqy-7" value="1. State - Unintitialized&lt;br style=&quot;font-size: 14px;&quot;&gt;&lt;div style=&quot;text-align: left; font-size: 14px;&quot;&gt;&lt;span style=&quot;font-size: 14px;&quot;&gt;2. AddVertex&lt;/span&gt;&lt;/div&gt;" style="text;html=1;align=center;verticalAlign=middle;resizable=0;points=[];autosize=1;fontFamily=Jetbrains Mono;fontSize=14;" parent="1" vertex="1">
          <mxGeometry x="3510" y="3535" width="230" height="40" as="geometry" />
        </mxCell>
        <mxCell id="jVUEl1n2tODpElSi2Gqy-10" style="edgeStyle=orthogonalEdgeStyle;orthogonalLoop=1;jettySize=auto;html=1;exitX=1;exitY=0.5;exitDx=0;exitDy=0;fontFamily=Jetbrains Mono;fillColor=#d5e8d4;strokeColor=#82b366;" parent="1" source="HHnZ4qpc_pkSZuf3FhQu-93" edge="1">
          <mxGeometry relative="1" as="geometry">
            <mxPoint x="5740" y="4283" as="targetPoint" />
          </mxGeometry>
        </mxCell>
        <mxCell id="jVUEl1n2tODpElSi2Gqy-11" value="Register both in the Vertices and VerticesMap" style="text;html=1;align=center;verticalAlign=middle;resizable=0;points=[];autosize=1;fontSize=14;fontFamily=Jetbrains Mono;" parent="1" vertex="1">
          <mxGeometry x="3900" y="3590" width="390" height="20" as="geometry" />
        </mxCell>
        <mxCell id="jVUEl1n2tODpElSi2Gqy-22" style="edgeStyle=orthogonalEdgeStyle;orthogonalLoop=1;jettySize=auto;html=1;exitX=1;exitY=0.5;exitDx=0;exitDy=0;fontFamily=Jetbrains Mono;fontSize=14;fillColor=#ffe6cc;strokeColor=#d79b00;entryX=0.5;entryY=0;entryDx=0;entryDy=0;" parent="1" source="jVUEl1n2tODpElSi2Gqy-20" target="jVUEl1n2tODpElSi2Gqy-122" edge="1">
          <mxGeometry relative="1" as="geometry">
            <mxPoint x="4392" y="4012" as="targetPoint" />
          </mxGeometry>
        </mxCell>
        <mxCell id="jVUEl1n2tODpElSi2Gqy-23" value="IF vertex implements Provider Interface" style="edgeLabel;html=1;align=center;verticalAlign=middle;resizable=0;points=[];fontSize=14;fontFamily=Jetbrains Mono;" parent="jVUEl1n2tODpElSi2Gqy-22" vertex="1" connectable="0">
          <mxGeometry x="0.0373" y="-4" relative="1" as="geometry">
            <mxPoint x="-155.43" y="-20" as="offset" />
          </mxGeometry>
        </mxCell>
        <mxCell id="jVUEl1n2tODpElSi2Gqy-24" style="edgeStyle=orthogonalEdgeStyle;orthogonalLoop=1;jettySize=auto;html=1;exitX=0;exitY=0.5;exitDx=0;exitDy=0;fontFamily=Jetbrains Mono;fontSize=14;entryX=0;entryY=0.5;entryDx=0;entryDy=0;fillColor=#ffe6cc;strokeColor=#d79b00;" parent="1" source="jVUEl1n2tODpElSi2Gqy-20" target="jVUEl1n2tODpElSi2Gqy-4" edge="1">
          <mxGeometry relative="1" as="geometry">
            <mxPoint x="3488" y="3985" as="targetPoint" />
            <Array as="points">
              <mxPoint x="3563" y="3985" />
              <mxPoint x="3563" y="3617" />
            </Array>
          </mxGeometry>
        </mxCell>
        <mxCell id="jVUEl1n2tODpElSi2Gqy-25" value="Vertex doesn&#39;t implemet Provider Interface" style="edgeLabel;html=1;align=center;verticalAlign=middle;resizable=0;points=[];fontSize=14;fontFamily=Jetbrains Mono;" parent="jVUEl1n2tODpElSi2Gqy-24" vertex="1" connectable="0">
          <mxGeometry x="-0.0732" relative="1" as="geometry">
            <mxPoint x="3.9200000000000017" y="-19" as="offset" />
          </mxGeometry>
        </mxCell>
        <mxCell id="jVUEl1n2tODpElSi2Gqy-50" style="edgeStyle=orthogonalEdgeStyle;rounded=0;orthogonalLoop=1;jettySize=auto;html=1;exitX=0.5;exitY=1;exitDx=0;exitDy=0;entryX=0.5;entryY=0;entryDx=0;entryDy=0;fontFamily=Jetbrains Mono;fontSize=14;fillColor=#ffe6cc;strokeColor=#d79b00;" parent="1" source="jVUEl1n2tODpElSi2Gqy-20" target="jVUEl1n2tODpElSi2Gqy-48" edge="1">
          <mxGeometry relative="1" as="geometry" />
        </mxCell>
        <mxCell id="jVUEl1n2tODpElSi2Gqy-20" value="&lt;sub&gt;&lt;font style=&quot;font-size: 16px&quot;&gt;Add Providers&amp;nbsp; &amp;nbsp; &amp;nbsp; &amp;nbsp;(vertex ID)&lt;/font&gt;&lt;/sub&gt;" style="rhombus;whiteSpace=wrap;html=1;aspect=fixed;align=center;verticalAlign=middle;fontFamily=Jetbrains Mono;perimeter=rhombusPerimeter;fillColor=#ffe6cc;strokeColor=#d79b00;" parent="1" vertex="1">
          <mxGeometry x="3670" y="3870" width="230" height="230" as="geometry" />
        </mxCell>
        <mxCell id="jVUEl1n2tODpElSi2Gqy-114" style="edgeStyle=orthogonalEdgeStyle;rounded=0;orthogonalLoop=1;jettySize=auto;html=1;exitX=0.5;exitY=1;exitDx=0;exitDy=0;strokeWidth=1;fontFamily=Jetbrains Mono;fontSize=12;entryX=1;entryY=0.5;entryDx=0;entryDy=0;fillColor=#bac8d3;strokeColor=#23445d;" parent="1" source="jVUEl1n2tODpElSi2Gqy-119" target="HHnZ4qpc_pkSZuf3FhQu-89" edge="1">
          <mxGeometry relative="1" as="geometry">
            <mxPoint x="5993.439697265625" y="4539.8402099609375" as="targetPoint" />
            <Array as="points">
              <mxPoint x="4392" y="5070" />
              <mxPoint x="5790" y="5070" />
              <mxPoint x="5790" y="4213" />
            </Array>
          </mxGeometry>
        </mxCell>
        <mxCell id="jVUEl1n2tODpElSi2Gqy-115" value="End of the function" style="edgeLabel;html=1;align=center;verticalAlign=middle;resizable=0;points=[];fontSize=12;fontFamily=Jetbrains Mono;" parent="jVUEl1n2tODpElSi2Gqy-114" vertex="1" connectable="0">
          <mxGeometry x="-0.4556" y="1" relative="1" as="geometry">
            <mxPoint x="-506.83" y="-20" as="offset" />
          </mxGeometry>
        </mxCell>
        <mxCell id="jVUEl1n2tODpElSi2Gqy-27" value="" style="whiteSpace=wrap;html=1;fontFamily=Jetbrains Mono;fontSize=14;align=left;verticalAlign=top;fillColor=#bac8d3;strokeColor=#23445d;comic=0;" parent="1" vertex="1">
          <mxGeometry x="4116" y="4136" width="551" height="856" as="geometry" />
        </mxCell>
        <mxCell id="jVUEl1n2tODpElSi2Gqy-44" style="edgeStyle=orthogonalEdgeStyle;orthogonalLoop=1;jettySize=auto;html=1;exitX=0.5;exitY=0;exitDx=0;exitDy=0;entryX=1;entryY=0.126;entryDx=0;entryDy=0;entryPerimeter=0;fontFamily=Jetbrains Mono;fontSize=14;" parent="1" source="jVUEl1n2tODpElSi2Gqy-30" target="HHnZ4qpc_pkSZuf3FhQu-89" edge="1">
          <mxGeometry relative="1" as="geometry">
            <Array as="points">
              <mxPoint x="5065" y="4110" />
              <mxPoint x="5690" y="4110" />
              <mxPoint x="5690" y="4203" />
            </Array>
          </mxGeometry>
        </mxCell>
        <mxCell id="jVUEl1n2tODpElSi2Gqy-30" value="ProviderEntry" style="swimlane;fontStyle=1;childLayout=stackLayout;horizontal=1;startSize=26;fillColor=#d5e8d4;horizontalStack=0;resizeParent=1;resizeParentMax=0;resizeLast=0;collapsible=1;marginBottom=0;fontSize=15;strokeWidth=2;strokeColor=#82b366;fontFamily=Jetbrains Mono;" parent="1" vertex="1">
          <mxGeometry x="4880" y="4140" width="370" height="86" as="geometry" />
        </mxCell>
        <mxCell id="jVUEl1n2tODpElSi2Gqy-31" value="FunctionName  string" style="text;strokeColor=none;fillColor=none;align=left;verticalAlign=top;spacingLeft=4;spacingRight=4;overflow=hidden;rotatable=0;points=[[0,0.5],[1,0.5]];portConstraint=eastwest;fontSize=14;fontStyle=0;fontFamily=Jetbrains Mono;" parent="jVUEl1n2tODpElSi2Gqy-30" vertex="1">
          <mxGeometry y="26" width="370" height="26" as="geometry" />
        </mxCell>
        <mxCell id="jVUEl1n2tODpElSi2Gqy-32" value="" style="line;strokeWidth=1;fillColor=none;align=left;verticalAlign=middle;spacingTop=-1;spacingLeft=3;spacingRight=3;rotatable=0;labelPosition=right;points=[];portConstraint=eastwest;fontSize=15;fontColor=#000000;fontStyle=1;fontFamily=Jetbrains Mono;" parent="jVUEl1n2tODpElSi2Gqy-30" vertex="1">
          <mxGeometry y="52" width="370" height="8" as="geometry" />
        </mxCell>
        <mxCell id="jVUEl1n2tODpElSi2Gqy-33" value="ReturnTypeIds []string" style="text;strokeColor=none;fillColor=none;align=left;verticalAlign=top;spacingLeft=4;spacingRight=4;overflow=hidden;rotatable=0;points=[[0,0.5],[1,0.5]];portConstraint=eastwest;fontSize=14;fontStyle=0;fontFamily=Jetbrains Mono;" parent="jVUEl1n2tODpElSi2Gqy-30" vertex="1">
          <mxGeometry y="60" width="370" height="26" as="geometry" />
        </mxCell>
        <mxCell id="jVUEl1n2tODpElSi2Gqy-80" style="edgeStyle=orthogonalEdgeStyle;rounded=0;orthogonalLoop=1;jettySize=auto;html=1;exitX=1;exitY=0.5;exitDx=0;exitDy=0;entryX=0.5;entryY=0;entryDx=0;entryDy=0;fontFamily=Jetbrains Mono;fontSize=14;fillColor=#bac8d3;strokeColor=#23445d;strokeWidth=1;" parent="1" source="jVUEl1n2tODpElSi2Gqy-107" target="jVUEl1n2tODpElSi2Gqy-60" edge="1">
          <mxGeometry relative="1" as="geometry">
            <Array as="points">
              <mxPoint x="6417" y="4906" />
              <mxPoint x="6417" y="3587" />
              <mxPoint x="6125" y="3587" />
            </Array>
          </mxGeometry>
        </mxCell>
        <mxCell id="jVUEl1n2tODpElSi2Gqy-150" style="edgeStyle=orthogonalEdgeStyle;rounded=0;orthogonalLoop=1;jettySize=auto;html=1;exitX=1;exitY=0.5;exitDx=0;exitDy=0;strokeWidth=1;fontFamily=Jetbrains Mono;fontSize=12;entryX=0.5;entryY=0;entryDx=0;entryDy=0;" parent="1" source="jVUEl1n2tODpElSi2Gqy-48" target="jVUEl1n2tODpElSi2Gqy-151" edge="1">
          <mxGeometry relative="1" as="geometry">
            <mxPoint x="4297.43994140625" y="5484" as="targetPoint" />
          </mxGeometry>
        </mxCell>
        <mxCell id="jVUEl1n2tODpElSi2Gqy-48" value="&lt;sub&gt;&lt;font style=&quot;font-size: 16px&quot;&gt;Initialize (Init)&lt;/font&gt;&lt;/sub&gt;" style="rhombus;whiteSpace=wrap;html=1;aspect=fixed;align=center;verticalAlign=middle;fontFamily=Jetbrains Mono;perimeter=rhombusPerimeter;fillColor=#dae8fc;strokeColor=#6c8ebf;shadow=0;" parent="1" vertex="1">
          <mxGeometry x="3669.997" y="5368.997" width="230" height="230" as="geometry" />
        </mxCell>
        <mxCell id="jVUEl1n2tODpElSi2Gqy-49" value="1. State - Initialized&lt;br style=&quot;font-size: 14px&quot;&gt;&lt;div style=&quot;text-align: left ; font-size: 14px&quot;&gt;&lt;span style=&quot;font-size: 14px&quot;&gt;2. func Initialize&lt;/span&gt;&lt;/div&gt;" style="text;html=1;align=center;verticalAlign=middle;resizable=0;points=[];autosize=1;fontFamily=Jetbrains Mono;fontSize=14;" parent="1" vertex="1">
          <mxGeometry x="3523.957" y="5374.8769999999995" width="196.85" height="39.37" as="geometry" />
        </mxCell>
        <mxCell id="jVUEl1n2tODpElSi2Gqy-81" style="edgeStyle=orthogonalEdgeStyle;rounded=0;orthogonalLoop=1;jettySize=auto;html=1;entryX=1;entryY=0.5;entryDx=0;entryDy=0;fontFamily=Jetbrains Mono;fontSize=14;fillColor=#f8cecc;strokeColor=#b85450;" parent="1" source="jVUEl1n2tODpElSi2Gqy-60" target="HHnZ4qpc_pkSZuf3FhQu-30" edge="1">
          <mxGeometry relative="1" as="geometry" />
        </mxCell>
        <mxCell id="jVUEl1n2tODpElSi2Gqy-60" value="ProvidedEntry" style="swimlane;fontStyle=1;childLayout=stackLayout;horizontal=1;startSize=26;fillColor=#f8cecc;horizontalStack=0;resizeParent=1;resizeParentMax=0;resizeLast=0;collapsible=1;marginBottom=0;fontSize=15;strokeWidth=2;strokeColor=#b85450;fontFamily=Jetbrains Mono;" parent="1" vertex="1">
          <mxGeometry x="5980.307" y="3649.997" width="290" height="158" as="geometry" />
        </mxCell>
        <mxCell id="jVUEl1n2tODpElSi2Gqy-61" value="Str string" style="text;strokeColor=none;fillColor=none;align=left;verticalAlign=top;spacingLeft=4;spacingRight=4;overflow=hidden;rotatable=0;points=[[0,0.5],[1,0.5]];portConstraint=eastwest;fontSize=14;fontStyle=0;fontFamily=Jetbrains Mono;" parent="jVUEl1n2tODpElSi2Gqy-60" vertex="1">
          <mxGeometry y="26" width="290" height="26" as="geometry" />
        </mxCell>
        <mxCell id="jVUEl1n2tODpElSi2Gqy-62" value="" style="line;strokeWidth=1;fillColor=none;align=left;verticalAlign=middle;spacingTop=-1;spacingLeft=3;spacingRight=3;rotatable=0;labelPosition=right;points=[];portConstraint=eastwest;fontSize=15;fontColor=#000000;fontFamily=Jetbrains Mono;" parent="jVUEl1n2tODpElSi2Gqy-60" vertex="1">
          <mxGeometry y="52" width="290" height="8" as="geometry" />
        </mxCell>
        <mxCell id="jVUEl1n2tODpElSi2Gqy-63" value="IsReference *bool" style="text;strokeColor=none;fillColor=none;align=left;verticalAlign=top;spacingLeft=4;spacingRight=4;overflow=hidden;rotatable=0;points=[[0,0.5],[1,0.5]];portConstraint=eastwest;fontSize=14;fontStyle=0;fontFamily=Jetbrains Mono;" parent="jVUEl1n2tODpElSi2Gqy-60" vertex="1">
          <mxGeometry y="60" width="290" height="26" as="geometry" />
        </mxCell>
        <mxCell id="jVUEl1n2tODpElSi2Gqy-64" value="" style="line;strokeWidth=1;fillColor=none;align=left;verticalAlign=middle;spacingTop=-1;spacingLeft=3;spacingRight=3;rotatable=0;labelPosition=right;points=[];portConstraint=eastwest;fontSize=15;fontColor=#000000;fontFamily=Jetbrains Mono;" parent="jVUEl1n2tODpElSi2Gqy-60" vertex="1">
          <mxGeometry y="86" width="290" height="8" as="geometry" />
        </mxCell>
        <mxCell id="jVUEl1n2tODpElSi2Gqy-65" value="Value       reflect.Value" style="text;strokeColor=none;fillColor=none;align=left;verticalAlign=top;spacingLeft=4;spacingRight=4;overflow=hidden;rotatable=0;points=[[0,0.5],[1,0.5]];portConstraint=eastwest;fontSize=14;fontStyle=0;fontFamily=Jetbrains Mono;" parent="jVUEl1n2tODpElSi2Gqy-60" vertex="1">
          <mxGeometry y="94" width="290" height="26" as="geometry" />
        </mxCell>
        <mxCell id="jVUEl1n2tODpElSi2Gqy-66" value="" style="line;strokeWidth=1;fillColor=none;align=left;verticalAlign=middle;spacingTop=-1;spacingLeft=3;spacingRight=3;rotatable=0;labelPosition=right;points=[];portConstraint=eastwest;fontSize=15;fontColor=#000000;fontFamily=Jetbrains Mono;" parent="jVUEl1n2tODpElSi2Gqy-60" vertex="1">
          <mxGeometry y="120" width="290" height="8" as="geometry" />
        </mxCell>
        <mxCell id="jVUEl1n2tODpElSi2Gqy-67" value="Kind        reflect.Kind" style="text;strokeColor=none;fillColor=none;align=left;verticalAlign=top;spacingLeft=4;spacingRight=4;overflow=hidden;rotatable=0;points=[[0,0.5],[1,0.5]];portConstraint=eastwest;fontSize=14;fontStyle=0;fontFamily=Jetbrains Mono;" parent="jVUEl1n2tODpElSi2Gqy-60" vertex="1">
          <mxGeometry y="128" width="290" height="30" as="geometry" />
        </mxCell>
        <mxCell id="jVUEl1n2tODpElSi2Gqy-90" style="edgeStyle=orthogonalEdgeStyle;rounded=0;orthogonalLoop=1;jettySize=auto;html=1;exitX=0.5;exitY=1;exitDx=0;exitDy=0;entryX=0.5;entryY=0;entryDx=0;entryDy=0;strokeWidth=1;fontFamily=Jetbrains Mono;fontSize=14;" parent="1" source="jVUEl1n2tODpElSi2Gqy-88" target="jVUEl1n2tODpElSi2Gqy-89" edge="1">
          <mxGeometry relative="1" as="geometry" />
        </mxCell>
        <mxCell id="jVUEl1n2tODpElSi2Gqy-91" value="VertexID" style="edgeLabel;html=1;align=center;verticalAlign=middle;resizable=0;points=[];fontSize=14;fontFamily=Jetbrains Mono;" parent="jVUEl1n2tODpElSi2Gqy-90" vertex="1" connectable="0">
          <mxGeometry x="0.2572" y="2" relative="1" as="geometry">
            <mxPoint as="offset" />
          </mxGeometry>
        </mxCell>
        <mxCell id="jVUEl1n2tODpElSi2Gqy-88" value="Get VertexID" style="html=1;shadow=0;comic=0;fontFamily=Jetbrains Mono;fontSize=14;align=left;verticalAlign=top;" parent="1" vertex="1">
          <mxGeometry x="4269" y="4136" width="237" height="35" as="geometry" />
        </mxCell>
        <mxCell id="jVUEl1n2tODpElSi2Gqy-93" style="edgeStyle=orthogonalEdgeStyle;rounded=0;orthogonalLoop=1;jettySize=auto;html=1;exitX=0.5;exitY=1;exitDx=0;exitDy=0;entryX=0.5;entryY=0;entryDx=0;entryDy=0;strokeWidth=1;fontFamily=Jetbrains Mono;fontSize=14;" parent="1" source="jVUEl1n2tODpElSi2Gqy-89" target="jVUEl1n2tODpElSi2Gqy-92" edge="1">
          <mxGeometry relative="1" as="geometry" />
        </mxCell>
        <mxCell id="jVUEl1n2tODpElSi2Gqy-97" value="VertexID, function" style="edgeLabel;html=1;align=center;verticalAlign=middle;resizable=0;points=[];fontSize=14;fontFamily=Jetbrains Mono;" parent="jVUEl1n2tODpElSi2Gqy-93" vertex="1" connectable="0">
          <mxGeometry x="-0.3306" y="1" relative="1" as="geometry">
            <mxPoint as="offset" />
          </mxGeometry>
        </mxCell>
        <mxCell id="jVUEl1n2tODpElSi2Gqy-89" value="Instance ProviderEntry" style="html=1;shadow=0;comic=0;fontFamily=Jetbrains Mono;fontSize=14;align=left;verticalAlign=top;" parent="1" vertex="1">
          <mxGeometry x="4268.997" y="4247.997" width="237" height="35" as="geometry" />
        </mxCell>
        <mxCell id="jVUEl1n2tODpElSi2Gqy-94" style="edgeStyle=orthogonalEdgeStyle;rounded=0;orthogonalLoop=1;jettySize=auto;html=1;exitX=1;exitY=0.5;exitDx=0;exitDy=0;entryX=0;entryY=0.5;entryDx=0;entryDy=0;strokeWidth=1;fontFamily=Jetbrains Mono;fontSize=14;fillColor=#b0e3e6;strokeColor=#0e8088;" parent="1" source="jVUEl1n2tODpElSi2Gqy-92" target="jVUEl1n2tODpElSi2Gqy-31" edge="1">
          <mxGeometry relative="1" as="geometry" />
        </mxCell>
        <mxCell id="jVUEl1n2tODpElSi2Gqy-105" value="vertexID, function" style="edgeStyle=orthogonalEdgeStyle;rounded=0;orthogonalLoop=1;jettySize=auto;html=1;exitX=0.5;exitY=1;exitDx=0;exitDy=0;entryX=0.5;entryY=0;entryDx=0;entryDy=0;strokeWidth=1;fontFamily=Jetbrains Mono;fontSize=14;" parent="1" source="jVUEl1n2tODpElSi2Gqy-92" target="jVUEl1n2tODpElSi2Gqy-104" edge="1">
          <mxGeometry relative="1" as="geometry" />
        </mxCell>
        <mxCell id="jVUEl1n2tODpElSi2Gqy-92" value="Dedup func name and put it &lt;br&gt;to the ProviderEntry" style="html=1;shadow=0;comic=0;fontFamily=Jetbrains Mono;fontSize=14;align=left;verticalAlign=top;" parent="1" vertex="1">
          <mxGeometry x="4269" y="4345" width="237" height="49" as="geometry" />
        </mxCell>
        <mxCell id="jVUEl1n2tODpElSi2Gqy-109" style="edgeStyle=orthogonalEdgeStyle;rounded=0;orthogonalLoop=1;jettySize=auto;html=1;exitX=0.5;exitY=1;exitDx=0;exitDy=0;entryX=0.5;entryY=0;entryDx=0;entryDy=0;strokeWidth=1;fontFamily=Jetbrains Mono;fontSize=14;" parent="1" source="jVUEl1n2tODpElSi2Gqy-99" target="jVUEl1n2tODpElSi2Gqy-106" edge="1">
          <mxGeometry relative="1" as="geometry" />
        </mxCell>
        <mxCell id="jVUEl1n2tODpElSi2Gqy-99" value="&lt;sub style=&quot;font-size: 12px;&quot;&gt;&lt;font style=&quot;font-size: 12px;&quot;&gt;return types&lt;/font&gt;&lt;/sub&gt;" style="rhombus;whiteSpace=wrap;html=1;aspect=fixed;align=center;verticalAlign=middle;fontFamily=Jetbrains Mono;perimeter=rhombusPerimeter;fillColor=#ffe6cc;strokeColor=#d79b00;fontSize=12;" parent="1" vertex="1">
          <mxGeometry x="4320.5" y="4515" width="134" height="134" as="geometry" />
        </mxCell>
        <mxCell id="jVUEl1n2tODpElSi2Gqy-110" style="edgeStyle=orthogonalEdgeStyle;rounded=0;orthogonalLoop=1;jettySize=auto;html=1;exitX=0.5;exitY=1;exitDx=0;exitDy=0;entryX=0.5;entryY=0;entryDx=0;entryDy=0;strokeWidth=1;fontFamily=Jetbrains Mono;fontSize=14;" parent="1" source="jVUEl1n2tODpElSi2Gqy-104" target="jVUEl1n2tODpElSi2Gqy-99" edge="1">
          <mxGeometry relative="1" as="geometry" />
        </mxCell>
        <mxCell id="jVUEl1n2tODpElSi2Gqy-104" value="Dedup func return types IDs" style="html=1;shadow=0;comic=0;fontFamily=Jetbrains Mono;fontSize=14;align=left;verticalAlign=top;" parent="1" vertex="1">
          <mxGeometry x="4268.997" y="4452.997" width="237" height="35" as="geometry" />
        </mxCell>
        <mxCell id="jVUEl1n2tODpElSi2Gqy-108" style="edgeStyle=orthogonalEdgeStyle;rounded=0;orthogonalLoop=1;jettySize=auto;html=1;exitX=0.5;exitY=1;exitDx=0;exitDy=0;entryX=0.5;entryY=0;entryDx=0;entryDy=0;strokeWidth=1;fontFamily=Jetbrains Mono;fontSize=14;" parent="1" source="jVUEl1n2tODpElSi2Gqy-106" target="jVUEl1n2tODpElSi2Gqy-107" edge="1">
          <mxGeometry relative="1" as="geometry" />
        </mxCell>
        <mxCell id="jVUEl1n2tODpElSi2Gqy-113" style="edgeStyle=orthogonalEdgeStyle;rounded=0;orthogonalLoop=1;jettySize=auto;html=1;exitX=1;exitY=0.5;exitDx=0;exitDy=0;entryX=0;entryY=0.5;entryDx=0;entryDy=0;strokeWidth=1;fontFamily=Jetbrains Mono;fontSize=14;fillColor=#b1ddf0;strokeColor=#10739e;" parent="1" source="jVUEl1n2tODpElSi2Gqy-106" target="jVUEl1n2tODpElSi2Gqy-33" edge="1">
          <mxGeometry relative="1" as="geometry">
            <Array as="points">
              <mxPoint x="4772" y="4743" />
              <mxPoint x="4772" y="4213" />
            </Array>
          </mxGeometry>
        </mxCell>
        <mxCell id="jVUEl1n2tODpElSi2Gqy-106" value="&lt;sub style=&quot;font-size: 12px;&quot;&gt;&lt;font style=&quot;font-size: 12px;&quot;&gt;return type ID&lt;/font&gt;&lt;/sub&gt;" style="rhombus;whiteSpace=wrap;html=1;aspect=fixed;align=center;verticalAlign=middle;fontFamily=Jetbrains Mono;perimeter=rhombusPerimeter;fillColor=#ffe6cc;strokeColor=#d79b00;fontSize=12;" parent="1" vertex="1">
          <mxGeometry x="4320.497" y="4675.997" width="134" height="134" as="geometry" />
        </mxCell>
        <mxCell id="jVUEl1n2tODpElSi2Gqy-111" style="edgeStyle=orthogonalEdgeStyle;rounded=0;orthogonalLoop=1;jettySize=auto;html=1;exitX=0;exitY=0.5;exitDx=0;exitDy=0;entryX=0;entryY=0.5;entryDx=0;entryDy=0;strokeWidth=1;fontFamily=Jetbrains Mono;fontSize=14;" parent="1" source="jVUEl1n2tODpElSi2Gqy-107" target="jVUEl1n2tODpElSi2Gqy-99" edge="1">
          <mxGeometry relative="1" as="geometry">
            <Array as="points">
              <mxPoint x="4236" y="4904" />
              <mxPoint x="4236" y="4582" />
            </Array>
          </mxGeometry>
        </mxCell>
        <mxCell id="jVUEl1n2tODpElSi2Gqy-112" value="LOOP over all return types" style="edgeLabel;html=1;align=center;verticalAlign=middle;resizable=0;points=[];fontSize=14;fontFamily=Jetbrains Mono;" parent="jVUEl1n2tODpElSi2Gqy-111" vertex="1" connectable="0">
          <mxGeometry x="0.0895" y="-1" relative="1" as="geometry">
            <mxPoint x="3.97" y="-44.88" as="offset" />
          </mxGeometry>
        </mxCell>
        <mxCell id="jVUEl1n2tODpElSi2Gqy-107" value="&lt;sub style=&quot;font-size: 12px;&quot;&gt;&lt;font style=&quot;font-size: 12px;&quot;&gt;vertex Provides&lt;/font&gt;&lt;/sub&gt;" style="rhombus;whiteSpace=wrap;html=1;aspect=fixed;align=center;verticalAlign=middle;fontFamily=Jetbrains Mono;perimeter=rhombusPerimeter;fillColor=#ffe6cc;strokeColor=#d79b00;fontSize=12;" parent="1" vertex="1">
          <mxGeometry x="4320.494000000001" y="4837.004" width="134" height="134" as="geometry" />
        </mxCell>
        <mxCell id="jVUEl1n2tODpElSi2Gqy-119" value="" style="ellipse;html=1;shape=endState;fillColor=#000000;strokeColor=#ff0000;shadow=0;comic=0;fontFamily=Jetbrains Mono;fontSize=12;align=center;" parent="1" vertex="1">
          <mxGeometry x="4376.5" y="5014.95" width="30" height="30" as="geometry" />
        </mxCell>
        <mxCell id="jVUEl1n2tODpElSi2Gqy-120" style="edgeStyle=orthogonalEdgeStyle;rounded=0;orthogonalLoop=1;jettySize=auto;html=1;exitX=0.5;exitY=1;exitDx=0;exitDy=0;strokeWidth=1;fontFamily=Jetbrains Mono;fontSize=12;entryX=0.5;entryY=0;entryDx=0;entryDy=0;fillColor=#bac8d3;strokeColor=#23445d;" parent="1" source="jVUEl1n2tODpElSi2Gqy-27" target="jVUEl1n2tODpElSi2Gqy-119" edge="1">
          <mxGeometry relative="1" as="geometry">
            <mxPoint x="5670.000000000001" y="4213.000000000001" as="targetPoint" />
            <mxPoint x="4391.500000000001" y="4992" as="sourcePoint" />
            <Array as="points" />
          </mxGeometry>
        </mxCell>
        <mxCell id="jVUEl1n2tODpElSi2Gqy-122" value="" style="ellipse;html=1;shape=startState;fillColor=#000000;strokeColor=#ff0000;shadow=0;comic=0;fontFamily=Jetbrains Mono;fontSize=12;align=center;" parent="1" vertex="1">
          <mxGeometry x="4372" y="4043" width="30" height="30" as="geometry" />
        </mxCell>
        <mxCell id="jVUEl1n2tODpElSi2Gqy-123" value="" style="edgeStyle=orthogonalEdgeStyle;html=1;verticalAlign=bottom;endArrow=open;endSize=8;strokeColor=#ff0000;fontFamily=Jetbrains Mono;fontSize=12;entryX=0.5;entryY=0;entryDx=0;entryDy=0;" parent="1" source="jVUEl1n2tODpElSi2Gqy-122" target="jVUEl1n2tODpElSi2Gqy-88" edge="1">
          <mxGeometry relative="1" as="geometry">
            <mxPoint x="4387" y="4118" as="targetPoint" />
          </mxGeometry>
        </mxCell>
        <mxCell id="jVUEl1n2tODpElSi2Gqy-146" style="edgeStyle=orthogonalEdgeStyle;rounded=0;orthogonalLoop=1;jettySize=auto;html=1;exitX=1;exitY=0;exitDx=0;exitDy=0;exitPerimeter=0;entryX=0;entryY=0.5;entryDx=0;entryDy=0;strokeWidth=1;fontFamily=Jetbrains Mono;fontSize=12;fillColor=#fff2cc;strokeColor=#d6b656;" parent="1" source="jVUEl1n2tODpElSi2Gqy-145" target="HHnZ4qpc_pkSZuf3FhQu-44" edge="1">
          <mxGeometry relative="1" as="geometry">
            <Array as="points">
              <mxPoint x="5333" y="3439" />
            </Array>
          </mxGeometry>
        </mxCell>
        <mxCell id="jVUEl1n2tODpElSi2Gqy-148" style="edgeStyle=orthogonalEdgeStyle;rounded=0;orthogonalLoop=1;jettySize=auto;html=1;exitX=1;exitY=1;exitDx=0;exitDy=0;exitPerimeter=0;entryX=0;entryY=0.5;entryDx=0;entryDy=0;strokeWidth=1;fontFamily=Jetbrains Mono;fontSize=12;fillColor=#fff2cc;strokeColor=#d6b656;" parent="1" source="jVUEl1n2tODpElSi2Gqy-145" target="HHnZ4qpc_pkSZuf3FhQu-46" edge="1">
          <mxGeometry relative="1" as="geometry">
            <Array as="points">
              <mxPoint x="5345" y="3473" />
              <mxPoint x="5345" y="3473" />
            </Array>
          </mxGeometry>
        </mxCell>
        <mxCell id="jVUEl1n2tODpElSi2Gqy-145" value="" style="strokeWidth=1;html=1;shape=mxgraph.flowchart.annotation_2;align=left;labelPosition=right;pointerEvents=1;shadow=0;comic=0;fontFamily=Jetbrains Mono;fontSize=12;fillColor=#fff2cc;strokeColor=#d6b656;" parent="1" vertex="1">
          <mxGeometry x="5283" y="3439" width="50" height="34" as="geometry" />
        </mxCell>
        <mxCell id="jVUEl1n2tODpElSi2Gqy-149" value="" style="whiteSpace=wrap;html=1;fontFamily=Jetbrains Mono;fontSize=14;align=left;verticalAlign=top;fillColor=#bac8d3;strokeColor=#23445d;comic=0;" parent="1" vertex="1">
          <mxGeometry x="4116" y="5662" width="551" height="856" as="geometry" />
        </mxCell>
        <mxCell id="jVUEl1n2tODpElSi2Gqy-151" value="" style="ellipse;html=1;shape=startState;fillColor=#000000;strokeColor=#ff0000;shadow=0;comic=0;fontFamily=Jetbrains Mono;fontSize=12;align=center;" parent="1" vertex="1">
          <mxGeometry x="4377" y="5572" width="30" height="30" as="geometry" />
        </mxCell>
        <mxCell id="jVUEl1n2tODpElSi2Gqy-152" value="" style="edgeStyle=orthogonalEdgeStyle;html=1;verticalAlign=bottom;endArrow=open;endSize=8;strokeColor=#ff0000;fontFamily=Jetbrains Mono;fontSize=12;entryX=0.5;entryY=0;entryDx=0;entryDy=0;" parent="1" source="jVUEl1n2tODpElSi2Gqy-151" target="jVUEl1n2tODpElSi2Gqy-162" edge="1">
          <mxGeometry relative="1" as="geometry">
            <mxPoint x="4391.5" y="5703.000000000001" as="targetPoint" />
          </mxGeometry>
        </mxCell>
        <mxCell id="jVUEl1n2tODpElSi2Gqy-155" style="edgeStyle=orthogonalEdgeStyle;rounded=0;orthogonalLoop=1;jettySize=auto;html=1;exitX=1;exitY=0.5;exitDx=0;exitDy=0;strokeWidth=1;fontFamily=Jetbrains Mono;fontSize=12;entryX=0.5;entryY=0;entryDx=0;entryDy=0;" parent="1" source="jVUEl1n2tODpElSi2Gqy-162" target="jVUEl1n2tODpElSi2Gqy-157" edge="1">
          <mxGeometry relative="1" as="geometry">
            <mxPoint x="4955.14289202009" y="5771.000000000001" as="targetPoint" />
            <mxPoint x="4458.5" y="5770" as="sourcePoint" />
          </mxGeometry>
        </mxCell>
        <mxCell id="jVUEl1n2tODpElSi2Gqy-160" value="Vertex" style="edgeLabel;html=1;align=center;verticalAlign=middle;resizable=0;points=[];fontSize=12;fontFamily=Jetbrains Mono;" parent="jVUEl1n2tODpElSi2Gqy-155" vertex="1" connectable="0">
          <mxGeometry x="0.0334" y="5" relative="1" as="geometry">
            <mxPoint x="210.74" y="-6" as="offset" />
          </mxGeometry>
        </mxCell>
        <mxCell id="jVUEl1n2tODpElSi2Gqy-161" value="If vertex implements Collector interface" style="edgeLabel;html=1;align=center;verticalAlign=middle;resizable=0;points=[];fontSize=12;fontFamily=Jetbrains Mono;" parent="jVUEl1n2tODpElSi2Gqy-155" vertex="1" connectable="0">
          <mxGeometry x="-0.7956" y="3" relative="1" as="geometry">
            <mxPoint x="84.36" y="-8" as="offset" />
          </mxGeometry>
        </mxCell>
        <mxCell id="jVUEl1n2tODpElSi2Gqy-156" value="" style="whiteSpace=wrap;html=1;fontFamily=Jetbrains Mono;fontSize=14;align=left;verticalAlign=top;fillColor=#bac8d3;strokeColor=#23445d;comic=0;" parent="1" vertex="1">
          <mxGeometry x="4745" y="5929" width="551" height="676" as="geometry" />
        </mxCell>
        <mxCell id="jVUEl1n2tODpElSi2Gqy-157" value="" style="ellipse;html=1;shape=startState;fillColor=#000000;strokeColor=#ff0000;shadow=0;comic=0;fontFamily=Jetbrains Mono;fontSize=12;align=center;" parent="1" vertex="1">
          <mxGeometry x="5005.5" y="5833" width="30" height="30" as="geometry" />
        </mxCell>
        <mxCell id="jVUEl1n2tODpElSi2Gqy-158" value="" style="edgeStyle=orthogonalEdgeStyle;html=1;verticalAlign=bottom;endArrow=open;endSize=8;strokeColor=#ff0000;fontFamily=Jetbrains Mono;fontSize=12;entryX=0.5;entryY=0;entryDx=0;entryDy=0;" parent="1" source="jVUEl1n2tODpElSi2Gqy-157" target="jVUEl1n2tODpElSi2Gqy-163" edge="1">
          <mxGeometry relative="1" as="geometry">
            <mxPoint x="5020.499999999999" y="5962" as="targetPoint" />
          </mxGeometry>
        </mxCell>
        <mxCell id="jVUEl1n2tODpElSi2Gqy-162" value="fn addEdges" style="html=1;shadow=0;comic=0;strokeWidth=1;fontFamily=Jetbrains Mono;fontSize=12;align=center;fillColor=#d5e8d4;strokeColor=#82b366;" parent="1" vertex="1">
          <mxGeometry x="4337" y="5711" width="110" height="50" as="geometry" />
        </mxCell>
        <mxCell id="jVUEl1n2tODpElSi2Gqy-165" value="Vertex" style="edgeStyle=orthogonalEdgeStyle;rounded=0;orthogonalLoop=1;jettySize=auto;html=1;exitX=0.5;exitY=1;exitDx=0;exitDy=0;entryX=0.5;entryY=0;entryDx=0;entryDy=0;strokeWidth=1;fontFamily=Jetbrains Mono;fontSize=12;" parent="1" source="jVUEl1n2tODpElSi2Gqy-163" target="jVUEl1n2tODpElSi2Gqy-164" edge="1">
          <mxGeometry relative="1" as="geometry">
            <Array as="points">
              <mxPoint x="5021" y="6048" />
              <mxPoint x="5021" y="6048" />
            </Array>
          </mxGeometry>
        </mxCell>
        <mxCell id="jVUEl1n2tODpElSi2Gqy-163" value="fn addCollectorsDeps" style="html=1;shadow=0;comic=0;strokeWidth=1;fontFamily=Jetbrains Mono;fontSize=12;align=center;fillColor=#d5e8d4;strokeColor=#82b366;" parent="1" vertex="1">
          <mxGeometry x="4938" y="5967" width="166" height="50" as="geometry" />
        </mxCell>
        <mxCell id="jVUEl1n2tODpElSi2Gqy-167" value="function parameters" style="edgeStyle=orthogonalEdgeStyle;rounded=0;orthogonalLoop=1;jettySize=auto;html=1;exitX=0.5;exitY=1;exitDx=0;exitDy=0;entryX=0.5;entryY=0;entryDx=0;entryDy=0;strokeWidth=1;fontFamily=Jetbrains Mono;fontSize=12;" parent="1" source="jVUEl1n2tODpElSi2Gqy-164" target="jVUEl1n2tODpElSi2Gqy-166" edge="1">
          <mxGeometry relative="1" as="geometry" />
        </mxCell>
        <mxCell id="jVUEl1n2tODpElSi2Gqy-164" value="&lt;sub style=&quot;font-size: 12px&quot;&gt;&lt;font style=&quot;font-size: 12px&quot;&gt;paramsList(fn)&lt;/font&gt;&lt;/sub&gt;" style="rhombus;whiteSpace=wrap;html=1;aspect=fixed;align=center;verticalAlign=middle;fontFamily=Jetbrains Mono;perimeter=rhombusPerimeter;fillColor=#ffe6cc;strokeColor=#d79b00;fontSize=12;" parent="1" vertex="1">
          <mxGeometry x="4954" y="6073" width="134" height="134" as="geometry" />
        </mxCell>
        <mxCell id="jVUEl1n2tODpElSi2Gqy-173" style="edgeStyle=orthogonalEdgeStyle;rounded=0;orthogonalLoop=1;jettySize=auto;html=1;exitX=0.5;exitY=1;exitDx=0;exitDy=0;entryX=0.5;entryY=0;entryDx=0;entryDy=0;strokeWidth=1;fontFamily=Jetbrains Mono;fontSize=12;" parent="1" source="jVUEl1n2tODpElSi2Gqy-166" target="jVUEl1n2tODpElSi2Gqy-170" edge="1">
          <mxGeometry relative="1" as="geometry" />
        </mxCell>
        <mxCell id="jVUEl1n2tODpElSi2Gqy-166" value="&lt;sub style=&quot;font-size: 12px&quot;&gt;&lt;font style=&quot;font-size: 12px&quot;&gt;walk over all function In parameters&lt;/font&gt;&lt;/sub&gt;" style="rhombus;whiteSpace=wrap;html=1;aspect=fixed;align=center;verticalAlign=middle;fontFamily=Jetbrains Mono;perimeter=rhombusPerimeter;fillColor=#ffe6cc;strokeColor=#d79b00;fontSize=12;" parent="1" vertex="1">
          <mxGeometry x="4953.5" y="6251" width="134" height="134" as="geometry" />
        </mxCell>
        <mxCell id="jVUEl1n2tODpElSi2Gqy-168" style="edgeStyle=orthogonalEdgeStyle;rounded=0;orthogonalLoop=1;jettySize=auto;html=1;exitX=0.5;exitY=1;exitDx=0;exitDy=0;entryX=0;entryY=0.5;entryDx=0;entryDy=0;strokeWidth=1;fontFamily=Jetbrains Mono;fontSize=12;" parent="1" source="jVUEl1n2tODpElSi2Gqy-166" target="jVUEl1n2tODpElSi2Gqy-166" edge="1">
          <mxGeometry relative="1" as="geometry">
            <Array as="points">
              <mxPoint x="5021" y="6405" />
              <mxPoint x="4904" y="6405" />
              <mxPoint x="4904" y="6318" />
            </Array>
          </mxGeometry>
        </mxCell>
        <mxCell id="jVUEl1n2tODpElSi2Gqy-169" value="Find vertices, that implemet &lt;br&gt;all function parametes" style="text;html=1;align=left;verticalAlign=middle;resizable=0;points=[];autosize=1;fontSize=12;fontFamily=Jetbrains Mono;dashed=1;strokeColor=#d79b00;fillColor=#ffe6cc;" parent="1" vertex="1">
          <mxGeometry x="5060" y="6351" width="212" height="31" as="geometry" />
        </mxCell>
        <mxCell id="jVUEl1n2tODpElSi2Gqy-170" value="haveInterfaceDeps" style="rhombus;whiteSpace=wrap;html=1;fillColor=#ffffc0;strokeColor=#ff0000;shadow=0;dashed=1;comic=0;fontFamily=Jetbrains Mono;fontSize=12;align=center;rotation=0;aspect=fixed;" parent="1" vertex="1">
          <mxGeometry x="4933" y="6457" width="176" height="88" as="geometry" />
        </mxCell>
        <mxCell id="jVUEl1n2tODpElSi2Gqy-171" value="no" style="edgeStyle=orthogonalEdgeStyle;html=1;align=left;verticalAlign=bottom;endArrow=open;endSize=8;strokeColor=#ff0000;fontFamily=Jetbrains Mono;fontSize=12;entryX=0;entryY=0.5;entryDx=0;entryDy=0;" parent="1" source="jVUEl1n2tODpElSi2Gqy-170" target="jVUEl1n2tODpElSi2Gqy-175" edge="1">
          <mxGeometry x="-1" relative="1" as="geometry">
            <mxPoint x="5160" y="6504" as="targetPoint" />
          </mxGeometry>
        </mxCell>
        <mxCell id="jVUEl1n2tODpElSi2Gqy-172" value="yes" style="edgeStyle=orthogonalEdgeStyle;html=1;align=left;verticalAlign=top;endArrow=open;endSize=8;strokeColor=#ff0000;fontFamily=Jetbrains Mono;fontSize=12;entryX=0.5;entryY=0;entryDx=0;entryDy=0;" parent="1" source="jVUEl1n2tODpElSi2Gqy-170" target="jVUEl1n2tODpElSi2Gqy-174" edge="1">
          <mxGeometry x="-1" relative="1" as="geometry">
            <mxPoint x="5020" y="6584" as="targetPoint" />
          </mxGeometry>
        </mxCell>
        <mxCell id="jVUEl1n2tODpElSi2Gqy-185" style="edgeStyle=orthogonalEdgeStyle;rounded=0;orthogonalLoop=1;jettySize=auto;html=1;exitX=0.5;exitY=1;exitDx=0;exitDy=0;entryX=0.5;entryY=0;entryDx=0;entryDy=0;strokeWidth=1;fontFamily=Jetbrains Mono;fontSize=12;" parent="1" source="jVUEl1n2tODpElSi2Gqy-174" target="jVUEl1n2tODpElSi2Gqy-180" edge="1">
          <mxGeometry relative="1" as="geometry" />
        </mxCell>
        <mxCell id="jVUEl1n2tODpElSi2Gqy-174" value="" style="ellipse;html=1;shape=endState;fillColor=#000000;strokeColor=#ff0000;shadow=0;dashed=1;comic=0;fontFamily=Jetbrains Mono;fontSize=12;align=center;" parent="1" vertex="1">
          <mxGeometry x="5005.5" y="6612" width="30" height="30" as="geometry" />
        </mxCell>
        <mxCell id="jVUEl1n2tODpElSi2Gqy-184" style="edgeStyle=orthogonalEdgeStyle;rounded=0;orthogonalLoop=1;jettySize=auto;html=1;exitX=1;exitY=0.5;exitDx=0;exitDy=0;entryX=0.5;entryY=0;entryDx=0;entryDy=0;strokeWidth=1;fontFamily=Jetbrains Mono;fontSize=12;" parent="1" source="jVUEl1n2tODpElSi2Gqy-175" target="jVUEl1n2tODpElSi2Gqy-182" edge="1">
          <mxGeometry relative="1" as="geometry" />
        </mxCell>
        <mxCell id="jVUEl1n2tODpElSi2Gqy-175" value="" style="ellipse;html=1;shape=endState;fillColor=#000000;strokeColor=#ff0000;shadow=0;dashed=1;comic=0;fontFamily=Jetbrains Mono;fontSize=12;align=center;" parent="1" vertex="1">
          <mxGeometry x="5299.997" y="6485.997" width="30" height="30" as="geometry" />
        </mxCell>
        <mxCell id="jVUEl1n2tODpElSi2Gqy-176" value="" style="whiteSpace=wrap;html=1;fontFamily=Jetbrains Mono;fontSize=14;align=left;verticalAlign=top;fillColor=#bac8d3;comic=0;" parent="1" vertex="1">
          <mxGeometry x="4436" y="6794" width="860.5" height="1114" as="geometry" />
        </mxCell>
        <mxCell id="jVUEl1n2tODpElSi2Gqy-177" value="" style="whiteSpace=wrap;html=1;fontFamily=Jetbrains Mono;fontSize=14;align=left;verticalAlign=top;fillColor=#bac8d3;strokeColor=#23445d;comic=0;" parent="1" vertex="1">
          <mxGeometry x="5339.004" y="6793.994" width="551" height="676" as="geometry" />
        </mxCell>
        <mxCell id="jVUEl1n2tODpElSi2Gqy-178" value="Struct and interface dependencies" style="text;html=1;align=center;verticalAlign=middle;resizable=0;points=[];autosize=1;fontSize=12;fontFamily=Jetbrains Mono;" parent="1" vertex="1">
          <mxGeometry x="4745.5" y="6777" width="247" height="17" as="geometry" />
        </mxCell>
        <mxCell id="jVUEl1n2tODpElSi2Gqy-179" value="Struct dependencies only" style="text;html=1;align=center;verticalAlign=middle;resizable=0;points=[];autosize=1;fontSize=12;fontFamily=Jetbrains Mono;" parent="1" vertex="1">
          <mxGeometry x="5339" y="6777" width="183" height="17" as="geometry" />
        </mxCell>
        <mxCell id="jVUEl1n2tODpElSi2Gqy-180" value="" style="ellipse;html=1;shape=startState;fillColor=#000000;strokeColor=#ff0000;shadow=0;dashed=1;comic=0;fontFamily=Jetbrains Mono;fontSize=12;align=center;" parent="1" vertex="1">
          <mxGeometry x="5005" y="6684" width="30" height="30" as="geometry" />
        </mxCell>
        <mxCell id="jVUEl1n2tODpElSi2Gqy-181" value="" style="edgeStyle=orthogonalEdgeStyle;html=1;verticalAlign=bottom;endArrow=open;endSize=8;strokeColor=#ff0000;fontFamily=Jetbrains Mono;fontSize=12;entryX=0.5;entryY=0;entryDx=0;entryDy=0;" parent="1" source="jVUEl1n2tODpElSi2Gqy-180" target="jVUEl1n2tODpElSi2Gqy-199" edge="1">
          <mxGeometry relative="1" as="geometry">
            <mxPoint x="5020" y="6774" as="targetPoint" />
          </mxGeometry>
        </mxCell>
        <mxCell id="jVUEl1n2tODpElSi2Gqy-200" value="[compatible Vertices, fnName string, vertex *Vertex, params []reflect.Type]" style="edgeLabel;align=center;verticalAlign=middle;resizable=0;points=[];fontSize=12;fontFamily=Jetbrains Mono;" parent="jVUEl1n2tODpElSi2Gqy-181" vertex="1" connectable="0">
          <mxGeometry x="-0.349" relative="1" as="geometry">
            <mxPoint as="offset" />
          </mxGeometry>
        </mxCell>
        <mxCell id="jVUEl1n2tODpElSi2Gqy-182" value="" style="ellipse;html=1;shape=startState;fillColor=#000000;strokeColor=#ff0000;shadow=0;dashed=1;comic=0;fontFamily=Jetbrains Mono;fontSize=12;align=center;" parent="1" vertex="1">
          <mxGeometry x="5599" y="6698" width="30" height="30" as="geometry" />
        </mxCell>
        <mxCell id="jVUEl1n2tODpElSi2Gqy-183" value="" style="edgeStyle=orthogonalEdgeStyle;html=1;verticalAlign=bottom;endArrow=open;endSize=8;strokeColor=#ff0000;fontFamily=Jetbrains Mono;fontSize=12;" parent="1" source="jVUEl1n2tODpElSi2Gqy-182" edge="1">
          <mxGeometry relative="1" as="geometry">
            <mxPoint x="5614" y="6788" as="targetPoint" />
          </mxGeometry>
        </mxCell>
        <mxCell id="jVUEl1n2tODpElSi2Gqy-196" style="edgeStyle=orthogonalEdgeStyle;rounded=0;orthogonalLoop=1;jettySize=auto;html=1;exitX=0.5;exitY=0;exitDx=0;exitDy=0;entryX=1;entryY=0.5;entryDx=0;entryDy=0;strokeWidth=2;fontFamily=Jetbrains Mono;fontSize=12;fillColor=#d5e8d4;strokeColor=#82b366;" parent="1" source="jVUEl1n2tODpElSi2Gqy-186" target="HHnZ4qpc_pkSZuf3FhQu-91" edge="1">
          <mxGeometry relative="1" as="geometry" />
        </mxCell>
        <mxCell id="jVUEl1n2tODpElSi2Gqy-186" value="CollectorEntry" style="swimlane;fontStyle=1;childLayout=stackLayout;horizontal=1;startSize=26;fillColor=#d5e8d4;horizontalStack=0;resizeParent=1;resizeParentMax=0;resizeLast=0;collapsible=1;marginBottom=0;fontSize=15;strokeWidth=2;strokeColor=#82b366;fontFamily=Jetbrains Mono;" parent="1" vertex="1">
          <mxGeometry x="5980.31" y="4136" width="290.69" height="86" as="geometry" />
        </mxCell>
        <mxCell id="jVUEl1n2tODpElSi2Gqy-187" value="in []In" style="text;strokeColor=none;fillColor=none;align=left;verticalAlign=top;spacingLeft=4;spacingRight=4;overflow=hidden;rotatable=0;points=[[0,0.5],[1,0.5]];portConstraint=eastwest;fontSize=14;fontStyle=0;fontFamily=Jetbrains Mono;" parent="jVUEl1n2tODpElSi2Gqy-186" vertex="1">
          <mxGeometry y="26" width="290.69" height="26" as="geometry" />
        </mxCell>
        <mxCell id="jVUEl1n2tODpElSi2Gqy-188" value="" style="line;strokeWidth=1;fillColor=none;align=left;verticalAlign=middle;spacingTop=-1;spacingLeft=3;spacingRight=3;rotatable=0;labelPosition=right;points=[];portConstraint=eastwest;fontSize=15;fontColor=#000000;fontStyle=1;fontFamily=Jetbrains Mono;" parent="jVUEl1n2tODpElSi2Gqy-186" vertex="1">
          <mxGeometry y="52" width="290.69" height="8" as="geometry" />
        </mxCell>
        <mxCell id="jVUEl1n2tODpElSi2Gqy-189" value="fn string" style="text;strokeColor=none;fillColor=none;align=left;verticalAlign=top;spacingLeft=4;spacingRight=4;overflow=hidden;rotatable=0;points=[[0,0.5],[1,0.5]];portConstraint=eastwest;fontSize=14;fontStyle=0;fontFamily=Jetbrains Mono;" parent="jVUEl1n2tODpElSi2Gqy-186" vertex="1">
          <mxGeometry y="60" width="290.69" height="26" as="geometry" />
        </mxCell>
        <mxCell id="jVUEl1n2tODpElSi2Gqy-195" style="edgeStyle=orthogonalEdgeStyle;rounded=0;orthogonalLoop=1;jettySize=auto;html=1;exitX=0.5;exitY=0;exitDx=0;exitDy=0;entryX=1;entryY=0.5;entryDx=0;entryDy=0;strokeWidth=2;fontFamily=Jetbrains Mono;fontSize=12;fillColor=#d5e8d4;strokeColor=#82b366;" parent="1" source="jVUEl1n2tODpElSi2Gqy-190" target="jVUEl1n2tODpElSi2Gqy-187" edge="1">
          <mxGeometry relative="1" as="geometry">
            <Array as="points">
              <mxPoint x="6700" y="4116" />
              <mxPoint x="6317" y="4116" />
              <mxPoint x="6317" y="4175" />
            </Array>
          </mxGeometry>
        </mxCell>
        <mxCell id="jVUEl1n2tODpElSi2Gqy-190" value="In" style="swimlane;fontStyle=1;childLayout=stackLayout;horizontal=1;startSize=26;fillColor=#d5e8d4;horizontalStack=0;resizeParent=1;resizeParentMax=0;resizeLast=0;collapsible=1;marginBottom=0;fontSize=15;strokeWidth=2;strokeColor=#82b366;fontFamily=Jetbrains Mono;" parent="1" vertex="1">
          <mxGeometry x="6554.997" y="4135.997" width="290.69" height="86" as="geometry" />
        </mxCell>
        <mxCell id="jVUEl1n2tODpElSi2Gqy-191" value="in  reflect.Value" style="text;strokeColor=none;fillColor=none;align=left;verticalAlign=top;spacingLeft=4;spacingRight=4;overflow=hidden;rotatable=0;points=[[0,0.5],[1,0.5]];portConstraint=eastwest;fontSize=14;fontStyle=0;fontFamily=Jetbrains Mono;" parent="jVUEl1n2tODpElSi2Gqy-190" vertex="1">
          <mxGeometry y="26" width="290.69" height="26" as="geometry" />
        </mxCell>
        <mxCell id="jVUEl1n2tODpElSi2Gqy-192" value="" style="line;strokeWidth=1;fillColor=none;align=left;verticalAlign=middle;spacingTop=-1;spacingLeft=3;spacingRight=3;rotatable=0;labelPosition=right;points=[];portConstraint=eastwest;fontSize=15;fontColor=#000000;fontStyle=1;fontFamily=Jetbrains Mono;" parent="jVUEl1n2tODpElSi2Gqy-190" vertex="1">
          <mxGeometry y="52" width="290.69" height="8" as="geometry" />
        </mxCell>
        <mxCell id="jVUEl1n2tODpElSi2Gqy-193" value="dep string" style="text;strokeColor=none;fillColor=none;align=left;verticalAlign=top;spacingLeft=4;spacingRight=4;overflow=hidden;rotatable=0;points=[[0,0.5],[1,0.5]];portConstraint=eastwest;fontSize=14;fontStyle=0;fontFamily=Jetbrains Mono;" parent="jVUEl1n2tODpElSi2Gqy-190" vertex="1">
          <mxGeometry y="60" width="290.69" height="26" as="geometry" />
        </mxCell>
        <mxCell id="jVUEl1n2tODpElSi2Gqy-194" value="In struct represents In value, which contain:&#xa;1. &#39;in&#39; as reflect.Value&#xa;2. dep name as string" style="text;align=left;verticalAlign=middle;resizable=0;points=[];autosize=1;fontSize=12;fontFamily=Jetbrains Mono;strokeColor=#82b366;dashed=1;dashPattern=1 1;" parent="1" vertex="1">
          <mxGeometry x="6555" y="4231" width="334" height="44" as="geometry" />
        </mxCell>
        <mxCell id="jVUEl1n2tODpElSi2Gqy-198" value="CollectorEntry entry is collector interface &#xa;struct which contain:&#xa;1. In func types like func (a int, b string etc...)&#xa;2. function name" style="text;align=left;verticalAlign=middle;resizable=0;points=[];autosize=1;fontSize=12;fontFamily=Jetbrains Mono;strokeColor=#82b366;dashed=1;dashPattern=1 1;" parent="1" vertex="1">
          <mxGeometry x="5980.307" y="4223.997" width="377" height="58" as="geometry" />
        </mxCell>
        <mxCell id="KYQzdf3mtGntdD2Fi71_-6" style="edgeStyle=orthogonalEdgeStyle;rounded=0;orthogonalLoop=1;jettySize=auto;html=1;exitX=0.5;exitY=1;exitDx=0;exitDy=0;entryX=0;entryY=0.5;entryDx=0;entryDy=0;" edge="1" parent="1" source="jVUEl1n2tODpElSi2Gqy-199" target="KYQzdf3mtGntdD2Fi71_-4">
          <mxGeometry relative="1" as="geometry">
            <Array as="points">
              <mxPoint x="5020" y="6913" />
              <mxPoint x="4791" y="6913" />
              <mxPoint x="4791" y="6997" />
            </Array>
          </mxGeometry>
        </mxCell>
        <mxCell id="KYQzdf3mtGntdD2Fi71_-7" value="fnName" style="edgeLabel;html=1;align=center;verticalAlign=middle;resizable=0;points=[];" vertex="1" connectable="0" parent="KYQzdf3mtGntdD2Fi71_-6">
          <mxGeometry x="-0.2509" relative="1" as="geometry">
            <mxPoint as="offset" />
          </mxGeometry>
        </mxCell>
        <mxCell id="KYQzdf3mtGntdD2Fi71_-9" style="edgeStyle=orthogonalEdgeStyle;rounded=0;orthogonalLoop=1;jettySize=auto;html=1;exitX=0.75;exitY=1;exitDx=0;exitDy=0;entryX=0;entryY=0.5;entryDx=0;entryDy=0;" edge="1" parent="1" source="jVUEl1n2tODpElSi2Gqy-199" target="KYQzdf3mtGntdD2Fi71_-8">
          <mxGeometry relative="1" as="geometry" />
        </mxCell>
        <mxCell id="KYQzdf3mtGntdD2Fi71_-10" style="edgeStyle=orthogonalEdgeStyle;rounded=0;orthogonalLoop=1;jettySize=auto;html=1;exitX=0.25;exitY=1;exitDx=0;exitDy=0;entryX=0;entryY=0.5;entryDx=0;entryDy=0;" edge="1" parent="1" source="jVUEl1n2tODpElSi2Gqy-199" target="KYQzdf3mtGntdD2Fi71_-12">
          <mxGeometry relative="1" as="geometry">
            <Array as="points">
              <mxPoint x="4974" y="6899" />
              <mxPoint x="4773" y="6899" />
              <mxPoint x="4773" y="6874" />
              <mxPoint x="4492" y="6874" />
              <mxPoint x="4492" y="6967" />
            </Array>
          </mxGeometry>
        </mxCell>
        <mxCell id="KYQzdf3mtGntdD2Fi71_-17" value="reflect.ValueOf(Vertex)" style="edgeLabel;html=1;align=center;verticalAlign=middle;resizable=0;points=[];fontSize=13;" vertex="1" connectable="0" parent="KYQzdf3mtGntdD2Fi71_-10">
          <mxGeometry x="-0.0258" y="-2" relative="1" as="geometry">
            <mxPoint as="offset" />
          </mxGeometry>
        </mxCell>
        <mxCell id="KYQzdf3mtGntdD2Fi71_-18" style="edgeStyle=orthogonalEdgeStyle;rounded=0;orthogonalLoop=1;jettySize=auto;html=1;exitX=0;exitY=0.75;exitDx=0;exitDy=0;entryX=0;entryY=0.5;entryDx=0;entryDy=0;" edge="1" parent="1" source="jVUEl1n2tODpElSi2Gqy-199" target="KYQzdf3mtGntdD2Fi71_-15">
          <mxGeometry relative="1" as="geometry">
            <Array as="points">
              <mxPoint x="4799" y="6872" />
              <mxPoint x="4799" y="6826" />
              <mxPoint x="4467" y="6826" />
              <mxPoint x="4467" y="6997" />
            </Array>
          </mxGeometry>
        </mxCell>
        <mxCell id="KYQzdf3mtGntdD2Fi71_-19" value="vertex.ID" style="edgeLabel;html=1;align=center;verticalAlign=middle;resizable=0;points=[];fontSize=13;" vertex="1" connectable="0" parent="KYQzdf3mtGntdD2Fi71_-18">
          <mxGeometry x="-0.1544" relative="1" as="geometry">
            <mxPoint as="offset" />
          </mxGeometry>
        </mxCell>
        <mxCell id="jVUEl1n2tODpElSi2Gqy-199" value="fn processInterfaceDeps" style="shadow=0;comic=0;strokeWidth=1;fontFamily=Jetbrains Mono;fontSize=12;align=center;fillColor=#d5e8d4;strokeColor=#82b366;" parent="1" vertex="1">
          <mxGeometry x="4927.5" y="6834" width="185" height="50" as="geometry" />
        </mxCell>
        <mxCell id="KYQzdf3mtGntdD2Fi71_-1" value="CollectorEntry" style="swimlane;fontStyle=1;childLayout=stackLayout;horizontal=1;startSize=26;fillColor=#d5e8d4;horizontalStack=0;resizeParent=1;resizeParentMax=0;resizeLast=0;collapsible=1;marginBottom=0;fontSize=15;strokeWidth=2;strokeColor=#82b366;fontFamily=Jetbrains Mono;" vertex="1" parent="1">
          <mxGeometry x="4811" y="6924" width="162" height="86" as="geometry" />
        </mxCell>
        <mxCell id="KYQzdf3mtGntdD2Fi71_-2" value="in []In" style="text;strokeColor=#666666;fillColor=#f5f5f5;align=left;verticalAlign=top;spacingLeft=4;spacingRight=4;overflow=hidden;rotatable=0;points=[[0,0.5],[1,0.5]];portConstraint=eastwest;fontSize=14;fontStyle=0;fontFamily=Jetbrains Mono;fontColor=#333333;" vertex="1" parent="KYQzdf3mtGntdD2Fi71_-1">
          <mxGeometry y="26" width="162" height="26" as="geometry" />
        </mxCell>
        <mxCell id="KYQzdf3mtGntdD2Fi71_-3" value="" style="line;strokeWidth=1;fillColor=none;align=left;verticalAlign=middle;spacingTop=-1;spacingLeft=3;spacingRight=3;rotatable=0;labelPosition=right;points=[];portConstraint=eastwest;fontSize=15;fontColor=#000000;fontStyle=1;fontFamily=Jetbrains Mono;" vertex="1" parent="KYQzdf3mtGntdD2Fi71_-1">
          <mxGeometry y="52" width="162" height="8" as="geometry" />
        </mxCell>
        <mxCell id="KYQzdf3mtGntdD2Fi71_-4" value="fn string" style="text;strokeColor=#666666;fillColor=#f5f5f5;align=left;verticalAlign=top;spacingLeft=4;spacingRight=4;overflow=hidden;rotatable=0;points=[[0,0.5],[1,0.5]];portConstraint=eastwest;fontSize=14;fontStyle=0;fontFamily=Jetbrains Mono;fontColor=#333333;" vertex="1" parent="KYQzdf3mtGntdD2Fi71_-1">
          <mxGeometry y="60" width="162" height="26" as="geometry" />
        </mxCell>
        <mxCell id="KYQzdf3mtGntdD2Fi71_-8" value="&lt;sub style=&quot;font-size: 12px&quot;&gt;&lt;font style=&quot;font-size: 12px&quot;&gt;parameters (in)&lt;/font&gt;&lt;/sub&gt;" style="rhombus;whiteSpace=wrap;html=1;aspect=fixed;align=center;verticalAlign=middle;fontFamily=Jetbrains Mono;perimeter=rhombusPerimeter;fillColor=#ffe6cc;strokeColor=#d79b00;fontSize=12;direction=south;" vertex="1" parent="1">
          <mxGeometry x="4952.997" y="7034.997" width="134" height="134" as="geometry" />
        </mxCell>
        <mxCell id="KYQzdf3mtGntdD2Fi71_-16" style="edgeStyle=orthogonalEdgeStyle;rounded=0;orthogonalLoop=1;jettySize=auto;html=1;exitX=0.5;exitY=0;exitDx=0;exitDy=0;entryX=0;entryY=0.5;entryDx=0;entryDy=0;" edge="1" parent="1" source="KYQzdf3mtGntdD2Fi71_-12" target="KYQzdf3mtGntdD2Fi71_-2">
          <mxGeometry relative="1" as="geometry" />
        </mxCell>
        <mxCell id="KYQzdf3mtGntdD2Fi71_-21" style="edgeStyle=orthogonalEdgeStyle;rounded=0;orthogonalLoop=1;jettySize=auto;html=1;exitX=0.25;exitY=0;exitDx=0;exitDy=0;entryX=0.75;entryY=0;entryDx=0;entryDy=0;fillColor=#0050ef;strokeColor=#001DBC;shadow=0;" edge="1" parent="1" source="KYQzdf3mtGntdD2Fi71_-12" target="jVUEl1n2tODpElSi2Gqy-190">
          <mxGeometry relative="1" as="geometry">
            <mxPoint x="7414" y="5224" as="targetPoint" />
            <Array as="points">
              <mxPoint x="4587" y="6660" />
              <mxPoint x="7028" y="6660" />
              <mxPoint x="7028" y="4037" />
              <mxPoint x="6773" y="4037" />
            </Array>
          </mxGeometry>
        </mxCell>
        <mxCell id="KYQzdf3mtGntdD2Fi71_-20" value="Add self" style="text;html=1;fillColor=none;align=center;verticalAlign=middle;whiteSpace=wrap;rounded=0;strokeColor=#000000;dashed=1;dashPattern=1 1;" vertex="1" parent="1">
          <mxGeometry x="4631" y="6839" width="57" height="20" as="geometry" />
        </mxCell>
        <mxCell id="KYQzdf3mtGntdD2Fi71_-12" value="In" style="swimlane;fontStyle=1;childLayout=stackLayout;horizontal=1;startSize=26;fillColor=#d5e8d4;horizontalStack=0;resizeParent=1;resizeParentMax=0;resizeLast=0;collapsible=1;marginBottom=0;fontSize=15;strokeWidth=2;strokeColor=#82b366;fontFamily=Jetbrains Mono;labelBackgroundColor=none;labelBorderColor=none;sketch=0;glass=0;shadow=0;" vertex="1" parent="1">
          <mxGeometry x="4549" y="6924" width="150" height="86" as="geometry" />
        </mxCell>
        <mxCell id="KYQzdf3mtGntdD2Fi71_-13" value="in  reflect.Value" style="text;align=left;verticalAlign=top;spacingLeft=4;spacingRight=4;overflow=hidden;rotatable=0;points=[[0,0.5],[1,0.5]];portConstraint=eastwest;fontSize=14;fontStyle=0;fontFamily=Jetbrains Mono;fillColor=#f5f5f5;strokeColor=#666666;fontColor=#333333;" vertex="1" parent="KYQzdf3mtGntdD2Fi71_-12">
          <mxGeometry y="26" width="150" height="26" as="geometry" />
        </mxCell>
        <mxCell id="KYQzdf3mtGntdD2Fi71_-14" value="" style="line;strokeWidth=1;fillColor=none;align=left;verticalAlign=middle;spacingTop=-1;spacingLeft=3;spacingRight=3;rotatable=0;labelPosition=right;points=[];portConstraint=eastwest;fontSize=15;fontColor=#000000;fontStyle=1;fontFamily=Jetbrains Mono;" vertex="1" parent="KYQzdf3mtGntdD2Fi71_-12">
          <mxGeometry y="52" width="150" height="8" as="geometry" />
        </mxCell>
        <mxCell id="KYQzdf3mtGntdD2Fi71_-15" value="dep string" style="text;strokeColor=#666666;fillColor=#f5f5f5;align=left;verticalAlign=top;spacingLeft=4;spacingRight=4;overflow=hidden;rotatable=0;points=[[0,0.5],[1,0.5]];portConstraint=eastwest;fontSize=14;fontStyle=0;fontFamily=Jetbrains Mono;fontColor=#333333;" vertex="1" parent="KYQzdf3mtGntdD2Fi71_-12">
          <mxGeometry y="60" width="150" height="26" as="geometry" />
        </mxCell>
        <mxCell id="KYQzdf3mtGntdD2Fi71_-26" value="fnName - function name to invoke (func foo())&lt;br&gt;" style="text;html=1;align=center;verticalAlign=middle;resizable=0;points=[];autosize=1;fontSize=13;" vertex="1" parent="1">
          <mxGeometry x="4155" y="6800" width="270" height="20" as="geometry" />
        </mxCell>
        <mxCell id="KYQzdf3mtGntdD2Fi71_-31" value="LOOP over all compatible" style="text;strokeColor=none;fillColor=none;html=1;fontSize=24;fontStyle=1;verticalAlign=middle;align=center;shadow=0;glass=0;dashed=1;dashPattern=1 1;labelBackgroundColor=none;sketch=0;" vertex="1" parent="1">
          <mxGeometry x="4822" y="6794" width="100" height="40" as="geometry" />
        </mxCell>
      </root>
    </mxGraphModel>
  </diagram>
</mxfile>
